G75*
%MOIN*%
%OFA0B0*%
%FSLAX26Y26*%
%IPPOS*%
%LPD*%
%AMOC8*
5,1,8,0,0,1.08239X$1,22.5*
%
%ADD10C,0.000000*%
%ADD11C,0.008000*%
%ADD12C,0.005000*%
%ADD13C,0.006000*%
%ADD14C,0.004000*%
D10*
X00000000Y00000000D02*
X00000000Y02799606D01*
X02337008Y02799606D01*
X02337008Y00000000D01*
X00000000Y00000000D01*
D11*
X00575000Y01200000D02*
X00625000Y01200000D01*
X00625000Y01500000D02*
X00575000Y01500000D01*
X01075000Y01550000D02*
X01125000Y01550000D01*
X01125000Y01150000D02*
X01075000Y01150000D01*
X01625000Y01150000D02*
X01675000Y01150000D01*
X01675000Y01550000D02*
X01625000Y01550000D01*
X01350000Y00275000D02*
X01350000Y00225000D01*
X00950000Y00225000D02*
X00950000Y00275000D01*
D12*
X00957006Y00349500D02*
X00964513Y00349500D01*
X00972019Y00357006D01*
X00972019Y00394538D01*
X00964513Y00394538D02*
X00979526Y00394538D01*
X00995539Y00387032D02*
X01003046Y00394538D01*
X01018058Y00394538D01*
X01025565Y00387032D01*
X01025565Y00379526D01*
X01018058Y00372019D01*
X01025565Y00364513D01*
X01025565Y00357006D01*
X01018058Y00349500D01*
X01003046Y00349500D01*
X00995539Y00357006D01*
X01010552Y00372019D02*
X01018058Y00372019D01*
X00957006Y00349500D02*
X00949500Y00357006D01*
X00600000Y00500000D02*
X01800000Y00500000D01*
X01800000Y01050000D01*
X00600000Y01050000D01*
X00600000Y00500000D01*
X00955462Y01149500D02*
X01000500Y01149500D01*
X01000500Y01179526D01*
X01000500Y01195539D02*
X00955462Y01195539D01*
X01000500Y01225565D01*
X00955462Y01225565D01*
X00962968Y01241578D02*
X00955462Y01249085D01*
X00955462Y01264098D01*
X00962968Y01271604D01*
X00962968Y01287618D02*
X00955462Y01295124D01*
X00955462Y01310137D01*
X00962968Y01317643D01*
X00992994Y01317643D01*
X01000500Y01310137D01*
X01000500Y01295124D01*
X00992994Y01287618D01*
X00962968Y01287618D01*
X00992994Y01271604D02*
X01000500Y01264098D01*
X01000500Y01249085D01*
X00992994Y01241578D01*
X00962968Y01241578D01*
X00955462Y01179526D02*
X00955462Y01149500D01*
X00977981Y01149500D02*
X00977981Y01164513D01*
X00955462Y01333657D02*
X01000500Y01333657D01*
X01000500Y01356176D01*
X00992994Y01363683D01*
X00962968Y01363683D01*
X00955462Y01356176D01*
X00955462Y01333657D01*
X00955462Y01379696D02*
X01000500Y01379696D01*
X01000500Y01409722D01*
X01000500Y01425735D02*
X00955462Y01425735D01*
X00955462Y01448255D01*
X00962968Y01455761D01*
X00977981Y01455761D01*
X00985487Y01448255D01*
X00985487Y01425735D01*
X00985487Y01440748D02*
X01000500Y01455761D01*
X00977981Y01394709D02*
X00977981Y01379696D01*
X00955462Y01379696D02*
X00955462Y01409722D01*
X00744500Y01420928D02*
X00744500Y01428434D01*
X00736994Y01435941D01*
X00699462Y01435941D01*
X00699462Y01443447D02*
X00699462Y01428434D01*
X00706968Y01459461D02*
X00699462Y01466967D01*
X00699462Y01481980D01*
X00706968Y01489486D01*
X00714474Y01489486D01*
X00744500Y01459461D01*
X00744500Y01489486D01*
X00744500Y01420928D02*
X00736994Y01413421D01*
X00500000Y01750000D02*
X01000000Y01750000D01*
X01000000Y01950000D01*
X00500000Y01950000D01*
X00500000Y02150000D01*
X01000000Y02150000D01*
X01000000Y01950000D01*
X01000000Y02150000D02*
X01000000Y02350000D01*
X00500000Y02350000D01*
X00500000Y02150000D01*
X00500000Y01950000D02*
X00500000Y01750000D01*
X01400000Y01800000D02*
X01900000Y01800000D01*
X01900000Y02000000D01*
X01400000Y02000000D01*
X01400000Y02200000D01*
X01900000Y02200000D01*
X01900000Y02000000D01*
X01900000Y02200000D02*
X01900000Y02400000D01*
X01400000Y02400000D01*
X01400000Y02200000D01*
X01400000Y02000000D02*
X01400000Y01800000D01*
X01550500Y01501800D02*
X01550500Y01471775D01*
X01550500Y01486788D02*
X01505462Y01486788D01*
X01520474Y01471775D01*
X01512968Y01455761D02*
X01505462Y01448255D01*
X01505462Y01425735D01*
X01550500Y01425735D01*
X01535487Y01425735D02*
X01535487Y01448255D01*
X01527981Y01455761D01*
X01512968Y01455761D01*
X01535487Y01440748D02*
X01550500Y01455761D01*
X01550500Y01409722D02*
X01550500Y01379696D01*
X01505462Y01379696D01*
X01505462Y01409722D01*
X01527981Y01394709D02*
X01527981Y01379696D01*
X01542994Y01363683D02*
X01512968Y01363683D01*
X01505462Y01356176D01*
X01505462Y01333657D01*
X01550500Y01333657D01*
X01550500Y01356176D01*
X01542994Y01363683D01*
X01542994Y01317643D02*
X01512968Y01317643D01*
X01505462Y01310137D01*
X01505462Y01295124D01*
X01512968Y01287618D01*
X01542994Y01287618D01*
X01550500Y01295124D01*
X01550500Y01310137D01*
X01542994Y01317643D01*
X01542994Y01271604D02*
X01550500Y01264098D01*
X01550500Y01249085D01*
X01542994Y01241578D01*
X01512968Y01241578D01*
X01505462Y01249085D01*
X01505462Y01264098D01*
X01512968Y01271604D01*
X01505462Y01225565D02*
X01550500Y01225565D01*
X01505462Y01195539D01*
X01550500Y01195539D01*
X01550500Y01179526D02*
X01550500Y01149500D01*
X01505462Y01149500D01*
X01505462Y01179526D01*
X01527981Y01164513D02*
X01527981Y01149500D01*
D13*
X01932758Y00900015D02*
X01955444Y00900015D01*
X01944101Y00911358D02*
X01944101Y00888672D01*
X01969590Y00888672D02*
X01975261Y00883000D01*
X01986604Y00883000D01*
X01992276Y00888672D01*
X01992276Y00894343D01*
X01986604Y00900015D01*
X01980933Y00900015D01*
X01986604Y00900015D02*
X01992276Y00905686D01*
X01992276Y00911358D01*
X01986604Y00917029D01*
X01975261Y00917029D01*
X01969590Y00911358D01*
X02006421Y00888672D02*
X02012093Y00888672D01*
X02012093Y00883000D01*
X02006421Y00883000D01*
X02006421Y00888672D01*
X02024837Y00888672D02*
X02030508Y00883000D01*
X02041852Y00883000D01*
X02047523Y00888672D01*
X02047523Y00894343D01*
X02041852Y00900015D01*
X02036180Y00900015D01*
X02041852Y00900015D02*
X02047523Y00905686D01*
X02047523Y00911358D01*
X02041852Y00917029D01*
X02030508Y00917029D01*
X02024837Y00911358D01*
X02061668Y00917029D02*
X02061668Y00894343D01*
X02073011Y00883000D01*
X02084354Y00894343D01*
X02084354Y00917029D01*
X02073012Y00983000D02*
X02084355Y00994343D01*
X02084355Y01017029D01*
X02061669Y01017029D02*
X02061669Y00994343D01*
X02073012Y00983000D01*
X02047523Y00988672D02*
X02047523Y01000015D01*
X02041852Y01005686D01*
X02036180Y01005686D01*
X02024837Y01000015D01*
X02024837Y01017029D01*
X02047523Y01017029D01*
X02047523Y00988672D02*
X02041852Y00983000D01*
X02030509Y00983000D01*
X02024837Y00988672D01*
X02010692Y01000015D02*
X01988006Y01000015D01*
X01999349Y01011358D02*
X01999349Y00988672D01*
X01993677Y01083000D02*
X01988006Y01088672D01*
X01988006Y01111358D01*
X01993677Y01117029D01*
X02005020Y01117029D01*
X02010692Y01111358D01*
X02010692Y01100015D02*
X01999349Y01100015D01*
X02010692Y01100015D02*
X02010692Y01088672D01*
X02005020Y01083000D01*
X01993677Y01083000D01*
X02024837Y01083000D02*
X02024837Y01117029D01*
X02047523Y01083000D01*
X02047523Y01117029D01*
X02061669Y01117029D02*
X02078683Y01117029D01*
X02084355Y01111358D01*
X02084355Y01088672D01*
X02078683Y01083000D01*
X02061669Y01083000D01*
X02061669Y01117029D01*
X02061669Y01183000D02*
X02078683Y01183000D01*
X02084355Y01188672D01*
X02084355Y01211358D01*
X02078683Y01217029D01*
X02061669Y01217029D01*
X02061669Y01183000D01*
X02047523Y01183000D02*
X02047523Y01217029D01*
X02024837Y01217029D02*
X02024837Y01183000D01*
X02010692Y01188672D02*
X02010692Y01200015D01*
X01999349Y01200015D01*
X02010692Y01211358D02*
X02005020Y01217029D01*
X01993677Y01217029D01*
X01988006Y01211358D01*
X01988006Y01188672D01*
X01993677Y01183000D01*
X02005020Y01183000D01*
X02010692Y01188672D01*
X02024837Y01217029D02*
X02047523Y01183000D01*
X02048457Y01283000D02*
X02037114Y01283000D01*
X02042786Y01283000D02*
X02042786Y01317029D01*
X02048457Y01317029D02*
X02037114Y01317029D01*
X02022969Y01317029D02*
X02022969Y01294343D01*
X02011626Y01283000D01*
X02000283Y01294343D01*
X02000283Y01317029D01*
X02061668Y01317029D02*
X02061668Y01283000D01*
X02084354Y01283000D02*
X02061668Y01317029D01*
X02084354Y01317029D02*
X02084354Y01283000D01*
X02078683Y01483000D02*
X02067340Y01483000D01*
X02061669Y01488672D01*
X02084355Y01511358D01*
X02084355Y01488672D01*
X02078683Y01483000D01*
X02061669Y01488672D02*
X02061669Y01511358D01*
X02067340Y01517029D01*
X02078683Y01517029D01*
X02084355Y01511358D01*
X02084355Y01583000D02*
X02061669Y01583000D01*
X02073012Y01583000D02*
X02073012Y01617029D01*
X02061669Y01605686D01*
X02061669Y01683000D02*
X02084355Y01705686D01*
X02084355Y01711358D01*
X02078683Y01717029D01*
X02067340Y01717029D01*
X02061669Y01711358D01*
X02061669Y01683000D02*
X02084355Y01683000D01*
X02078683Y01783000D02*
X02067340Y01783000D01*
X02061669Y01788672D01*
X02073012Y01800015D02*
X02078683Y01800015D01*
X02084355Y01794343D01*
X02084355Y01788672D01*
X02078683Y01783000D01*
X02078683Y01800015D02*
X02084355Y01805686D01*
X02084355Y01811358D01*
X02078683Y01817029D01*
X02067340Y01817029D01*
X02061669Y01811358D01*
X02078683Y01883000D02*
X02078683Y01917029D01*
X02061669Y01900015D01*
X02084355Y01900015D01*
X02078683Y01983000D02*
X02067340Y01983000D01*
X02061669Y01988672D01*
X02061669Y02000015D02*
X02073012Y02005686D01*
X02078683Y02005686D01*
X02084355Y02000015D01*
X02084355Y01988672D01*
X02078683Y01983000D01*
X02061669Y02000015D02*
X02061669Y02017029D01*
X02084355Y02017029D01*
X02084355Y00817029D02*
X02061669Y00817029D01*
X02073012Y00817029D02*
X02073012Y00783000D01*
X02047523Y00788672D02*
X02041852Y00783000D01*
X02030509Y00783000D01*
X02024837Y00788672D01*
X02030509Y00800015D02*
X02041852Y00800015D01*
X02047523Y00794343D01*
X02047523Y00788672D01*
X02030509Y00800015D02*
X02024837Y00805686D01*
X02024837Y00811358D01*
X02030509Y00817029D01*
X02041852Y00817029D01*
X02047523Y00811358D01*
X02010692Y00811358D02*
X02010692Y00800015D01*
X02005020Y00794343D01*
X01988006Y00794343D01*
X01999349Y00794343D02*
X02010692Y00783000D01*
X01988006Y00783000D02*
X01988006Y00817029D01*
X02005020Y00817029D01*
X02010692Y00811358D01*
X02005020Y00717029D02*
X01988006Y00717029D01*
X01988006Y00683000D01*
X01988006Y00694343D02*
X02005020Y00694343D01*
X02010692Y00700015D01*
X02010692Y00711358D01*
X02005020Y00717029D01*
X02024837Y00717029D02*
X02024837Y00683000D01*
X02047523Y00683000D01*
X02061668Y00683000D02*
X02061668Y00717029D01*
X02084354Y00717029D01*
X02073011Y00700015D02*
X02061668Y00700015D01*
X02047523Y00717029D02*
X02024837Y00717029D01*
X02024837Y00700015D02*
X02036180Y00700015D01*
X02010692Y00683000D02*
X01999349Y00694343D01*
X01973860Y00688672D02*
X01973860Y00711358D01*
X01968189Y00717029D01*
X01956846Y00717029D01*
X01951174Y00711358D01*
X01951174Y00688672D01*
X01956846Y00683000D01*
X01968189Y00683000D01*
X01973860Y00688672D01*
X01937963Y00683000D02*
X01926620Y00683000D01*
X01932291Y00683000D02*
X01932291Y00717029D01*
X01926620Y00717029D02*
X01937963Y00717029D01*
X00436180Y00467029D02*
X00413494Y00467029D01*
X00413494Y00433000D01*
X00399349Y00433000D02*
X00376663Y00433000D01*
X00376663Y00467029D01*
X00399349Y00467029D01*
X00388006Y00450015D02*
X00376663Y00450015D01*
X00362517Y00450015D02*
X00356846Y00444343D01*
X00339831Y00444343D01*
X00339831Y00433000D02*
X00339831Y00467029D01*
X00356846Y00467029D01*
X00362517Y00461358D01*
X00362517Y00450015D01*
X00351174Y00444343D02*
X00362517Y00433000D01*
X00325686Y00433000D02*
X00325686Y00455686D01*
X00314343Y00467029D01*
X00303000Y00455686D01*
X00303000Y00433000D01*
X00303000Y00450015D02*
X00325686Y00450015D01*
X00320015Y00533000D02*
X00308672Y00533000D01*
X00303000Y00538672D01*
X00303000Y00561358D01*
X00308672Y00567029D01*
X00320015Y00567029D01*
X00325686Y00561358D01*
X00325686Y00550015D02*
X00314343Y00550015D01*
X00325686Y00550015D02*
X00325686Y00538672D01*
X00320015Y00533000D01*
X00339831Y00533000D02*
X00339831Y00567029D01*
X00362517Y00533000D01*
X00362517Y00567029D01*
X00376663Y00567029D02*
X00393677Y00567029D01*
X00399349Y00561358D01*
X00399349Y00538672D01*
X00393677Y00533000D01*
X00376663Y00533000D01*
X00376663Y00567029D01*
X00356846Y00633000D02*
X00345503Y00633000D01*
X00339831Y00638672D01*
X00325686Y00633000D02*
X00303000Y00633000D01*
X00314343Y00633000D02*
X00314343Y00667029D01*
X00303000Y00655686D01*
X00339831Y00661358D02*
X00345503Y00667029D01*
X00356846Y00667029D01*
X00362517Y00661358D01*
X00362517Y00655686D01*
X00356846Y00650015D01*
X00362517Y00644343D01*
X00362517Y00638672D01*
X00356846Y00633000D01*
X00356846Y00650015D02*
X00351174Y00650015D01*
X00339831Y00733000D02*
X00362517Y00755686D01*
X00362517Y00761358D01*
X00356846Y00767029D01*
X00345503Y00767029D01*
X00339831Y00761358D01*
X00314343Y00767029D02*
X00314343Y00733000D01*
X00303000Y00733000D02*
X00325686Y00733000D01*
X00339831Y00733000D02*
X00362517Y00733000D01*
X00314343Y00767029D02*
X00303000Y00755686D01*
X00303000Y00833000D02*
X00325686Y00833000D01*
X00314343Y00833000D02*
X00314343Y00867029D01*
X00303000Y00855686D01*
X00339831Y00855686D02*
X00351174Y00867029D01*
X00351174Y00833000D01*
X00339831Y00833000D02*
X00362517Y00833000D01*
X00356846Y00933000D02*
X00345503Y00933000D01*
X00339831Y00938672D01*
X00362517Y00961358D01*
X00362517Y00938672D01*
X00356846Y00933000D01*
X00339831Y00938672D02*
X00339831Y00961358D01*
X00345503Y00967029D01*
X00356846Y00967029D01*
X00362517Y00961358D01*
X00325686Y00933000D02*
X00303000Y00933000D01*
X00314343Y00933000D02*
X00314343Y00967029D01*
X00303000Y00955686D01*
X00308672Y01033000D02*
X00320015Y01033000D01*
X00325686Y01038672D01*
X00325686Y01061358D01*
X00320015Y01067029D01*
X00308672Y01067029D01*
X00303000Y01061358D01*
X00303000Y01055686D01*
X00308672Y01050015D01*
X00325686Y01050015D01*
X00308672Y01033000D02*
X00303000Y01038672D01*
X00308672Y01133000D02*
X00303000Y01138672D01*
X00303000Y01144343D01*
X00308672Y01150015D01*
X00320015Y01150015D01*
X00325686Y01144343D01*
X00325686Y01138672D01*
X00320015Y01133000D01*
X00308672Y01133000D01*
X00308672Y01150015D02*
X00303000Y01155686D01*
X00303000Y01161358D01*
X00308672Y01167029D01*
X00320015Y01167029D01*
X00325686Y01161358D01*
X00325686Y01155686D01*
X00320015Y01150015D01*
X00303000Y01283000D02*
X00303000Y01288672D01*
X00325686Y01311358D01*
X00325686Y01317029D01*
X00303000Y01317029D01*
X00308672Y01383000D02*
X00320015Y01383000D01*
X00325686Y01388672D01*
X00325686Y01394343D01*
X00320015Y01400015D01*
X00303000Y01400015D01*
X00303000Y01388672D01*
X00308672Y01383000D01*
X00303000Y01400015D02*
X00314343Y01411358D01*
X00325686Y01417029D01*
X00320015Y01483000D02*
X00308672Y01483000D01*
X00303000Y01488672D01*
X00303000Y01500015D02*
X00314343Y01505686D01*
X00320015Y01505686D01*
X00325686Y01500015D01*
X00325686Y01488672D01*
X00320015Y01483000D01*
X00303000Y01500015D02*
X00303000Y01517029D01*
X00325686Y01517029D01*
X00320015Y01583000D02*
X00320015Y01617029D01*
X00303000Y01600015D01*
X00325686Y01600015D01*
X00320015Y01683000D02*
X00308672Y01683000D01*
X00303000Y01688672D01*
X00314343Y01700015D02*
X00320015Y01700015D01*
X00325686Y01694343D01*
X00325686Y01688672D01*
X00320015Y01683000D01*
X00320015Y01700015D02*
X00325686Y01705686D01*
X00325686Y01711358D01*
X00320015Y01717029D01*
X00308672Y01717029D01*
X00303000Y01711358D01*
X00303000Y01783000D02*
X00325686Y01805686D01*
X00325686Y01811358D01*
X00320015Y01817029D01*
X00308672Y01817029D01*
X00303000Y01811358D01*
X00303000Y01783000D02*
X00325686Y01783000D01*
X00314343Y01883000D02*
X00314343Y01917029D01*
X00303000Y01917029D02*
X00325686Y01917029D01*
X00339831Y01917029D02*
X00362517Y01883000D01*
X00339831Y01883000D02*
X00362517Y01917029D01*
X00362517Y01983000D02*
X00339831Y02017029D01*
X00325686Y02011358D02*
X00325686Y02000015D01*
X00320015Y01994343D01*
X00303000Y01994343D01*
X00303000Y01983000D02*
X00303000Y02017029D01*
X00320015Y02017029D01*
X00325686Y02011358D01*
X00314343Y01994343D02*
X00325686Y01983000D01*
X00339831Y01983000D02*
X00362517Y02017029D01*
X00413494Y00450015D02*
X00424837Y00450015D01*
X00388006Y00367029D02*
X00376663Y00355686D01*
X00376663Y00333000D01*
X00362517Y00338672D02*
X00362517Y00361358D01*
X00356846Y00367029D01*
X00339831Y00367029D01*
X00339831Y00333000D01*
X00356846Y00333000D01*
X00362517Y00338672D01*
X00376663Y00350015D02*
X00399349Y00350015D01*
X00399349Y00355686D02*
X00399349Y00333000D01*
X00399349Y00355686D02*
X00388006Y00367029D01*
X00325686Y00361358D02*
X00320015Y00367029D01*
X00308672Y00367029D01*
X00303000Y00361358D01*
X00303000Y00355686D01*
X00308672Y00350015D01*
X00320015Y00350015D01*
X00325686Y00344343D01*
X00325686Y00338672D01*
X00320015Y00333000D01*
X00308672Y00333000D01*
X00303000Y00338672D01*
X00308672Y00267029D02*
X00303000Y00261358D01*
X00303000Y00255686D01*
X00308672Y00250015D01*
X00320015Y00250015D01*
X00325686Y00244343D01*
X00325686Y00238672D01*
X00320015Y00233000D01*
X00308672Y00233000D01*
X00303000Y00238672D01*
X00308672Y00267029D02*
X00320015Y00267029D01*
X00325686Y00261358D01*
X00339831Y00261358D02*
X00339831Y00238672D01*
X00345503Y00233000D01*
X00356846Y00233000D01*
X00362517Y00238672D01*
X00376663Y00233000D02*
X00399349Y00233000D01*
X00376663Y00233000D02*
X00376663Y00267029D01*
X00362517Y00261358D02*
X00356846Y00267029D01*
X00345503Y00267029D01*
X00339831Y00261358D01*
D14*
X00501961Y00552000D02*
X00548000Y00582693D01*
X00501961Y00582693D01*
X00501961Y00613386D02*
X00501961Y00628732D01*
X00501961Y00621059D02*
X00540327Y00621059D01*
X00548000Y00613386D01*
X00548000Y00605712D01*
X00540327Y00598039D01*
X00548000Y00644078D02*
X00501961Y00644078D01*
X00517307Y00659425D01*
X00501961Y00674771D01*
X00548000Y00674771D01*
X00548000Y00690118D02*
X00517307Y00720811D01*
X00509634Y00720811D01*
X00501961Y00713137D01*
X00501961Y00697791D01*
X00509634Y00690118D01*
X00548000Y00690118D02*
X00548000Y00720811D01*
X00540327Y00736157D02*
X00548000Y00743830D01*
X00548000Y00759177D01*
X00540327Y00766850D01*
X00532654Y00766850D01*
X00524980Y00759177D01*
X00524980Y00736157D01*
X00540327Y00736157D01*
X00524980Y00736157D02*
X00509634Y00751503D01*
X00501961Y00766850D01*
X00501961Y00782196D02*
X00501961Y00812889D01*
X00509634Y00812889D01*
X00540327Y00782196D01*
X00548000Y00782196D01*
X00540327Y00828235D02*
X00509634Y00828235D01*
X00501961Y00835909D01*
X00501961Y00851255D01*
X00509634Y00858928D01*
X00540327Y00828235D01*
X00548000Y00835909D01*
X00548000Y00851255D01*
X00540327Y00858928D01*
X00509634Y00858928D01*
X00501961Y00552000D02*
X00548000Y00552000D01*
X00602000Y01752000D02*
X00632693Y01752000D01*
X00648039Y01767346D02*
X00648039Y01798039D01*
X00648039Y01767346D02*
X00663386Y01752000D01*
X00678732Y01767346D01*
X00678732Y01798039D01*
X00602000Y01798039D02*
X00602000Y01752000D01*
X00659673Y01902000D02*
X00675020Y01902000D01*
X00682693Y01909673D01*
X00698039Y01902000D02*
X00698039Y01948039D01*
X00682693Y01940366D02*
X00675020Y01948039D01*
X00659673Y01948039D01*
X00652000Y01940366D01*
X00652000Y01909673D01*
X00659673Y01902000D01*
X00698039Y01925020D02*
X00705712Y01932693D01*
X00721059Y01932693D01*
X00728732Y01925020D01*
X00728732Y01902000D01*
X00744078Y01909673D02*
X00751752Y01917346D01*
X00774771Y01917346D01*
X00774771Y01925020D02*
X00774771Y01902000D01*
X00751752Y01902000D01*
X00744078Y01909673D01*
X00751752Y01932693D02*
X00767098Y01932693D01*
X00774771Y01925020D01*
X00790118Y01932693D02*
X00813137Y01932693D01*
X00820811Y01925020D01*
X00820811Y01902000D01*
X00836157Y01902000D02*
X00866850Y01932693D01*
X00866850Y01940366D01*
X00859177Y01948039D01*
X00843830Y01948039D01*
X00836157Y01940366D01*
X00836157Y01902000D02*
X00866850Y01902000D01*
X00878732Y01798039D02*
X00878732Y01767346D01*
X00863386Y01752000D01*
X00848039Y01767346D01*
X00848039Y01798039D01*
X00832693Y01798039D02*
X00832693Y01752000D01*
X00832693Y01775020D02*
X00802000Y01775020D01*
X00802000Y01798039D02*
X00802000Y01752000D01*
X00790118Y01902000D02*
X00790118Y01932693D01*
X00790118Y02152000D02*
X00790118Y02182693D01*
X00813137Y02182693D01*
X00820811Y02175020D01*
X00820811Y02152000D01*
X00836157Y02152000D02*
X00866850Y02152000D01*
X00851503Y02152000D02*
X00851503Y02198039D01*
X00836157Y02182693D01*
X00774771Y02175020D02*
X00774771Y02152000D01*
X00751752Y02152000D01*
X00744078Y02159673D01*
X00751752Y02167346D01*
X00774771Y02167346D01*
X00774771Y02175020D02*
X00767098Y02182693D01*
X00751752Y02182693D01*
X00728732Y02175020D02*
X00728732Y02152000D01*
X00728732Y02175020D02*
X00721059Y02182693D01*
X00705712Y02182693D01*
X00698039Y02175020D01*
X00682693Y02190366D02*
X00675020Y02198039D01*
X00659673Y02198039D01*
X00652000Y02190366D01*
X00652000Y02159673D01*
X00659673Y02152000D01*
X00675020Y02152000D01*
X00682693Y02159673D01*
X00698039Y02152000D02*
X00698039Y02198039D01*
X00663386Y02302000D02*
X00678732Y02317346D01*
X00678732Y02348039D01*
X00648039Y02348039D02*
X00648039Y02317346D01*
X00663386Y02302000D01*
X00632693Y02302000D02*
X00602000Y02302000D01*
X00602000Y02348039D01*
X00802000Y02348039D02*
X00802000Y02302000D01*
X00802000Y02325020D02*
X00832693Y02325020D01*
X00848039Y02317346D02*
X00863386Y02302000D01*
X00878732Y02317346D01*
X00878732Y02348039D01*
X00848039Y02348039D02*
X00848039Y02317346D01*
X00832693Y02302000D02*
X00832693Y02348039D01*
X01502000Y02352000D02*
X01532693Y02352000D01*
X01548039Y02367346D02*
X01563386Y02352000D01*
X01578732Y02367346D01*
X01578732Y02398039D01*
X01548039Y02398039D02*
X01548039Y02367346D01*
X01502000Y02352000D02*
X01502000Y02398039D01*
X01559673Y02248039D02*
X01552000Y02240366D01*
X01552000Y02209673D01*
X01559673Y02202000D01*
X01575020Y02202000D01*
X01582693Y02209673D01*
X01598039Y02202000D02*
X01598039Y02248039D01*
X01582693Y02240366D02*
X01575020Y02248039D01*
X01559673Y02248039D01*
X01598039Y02225020D02*
X01605712Y02232693D01*
X01621059Y02232693D01*
X01628732Y02225020D01*
X01628732Y02202000D01*
X01644078Y02209673D02*
X01651752Y02217346D01*
X01674771Y02217346D01*
X01674771Y02225020D02*
X01674771Y02202000D01*
X01651752Y02202000D01*
X01644078Y02209673D01*
X01651752Y02232693D02*
X01667098Y02232693D01*
X01674771Y02225020D01*
X01690118Y02232693D02*
X01690118Y02202000D01*
X01720811Y02202000D02*
X01720811Y02225020D01*
X01713137Y02232693D01*
X01690118Y02232693D01*
X01736157Y02232693D02*
X01751503Y02248039D01*
X01751503Y02202000D01*
X01736157Y02202000D02*
X01766850Y02202000D01*
X01763386Y02352000D02*
X01778732Y02367346D01*
X01778732Y02398039D01*
X01748039Y02398039D02*
X01748039Y02367346D01*
X01763386Y02352000D01*
X01732693Y02352000D02*
X01732693Y02398039D01*
X01732693Y02375020D02*
X01702000Y02375020D01*
X01702000Y02398039D02*
X01702000Y02352000D01*
X01743830Y01998039D02*
X01736157Y01990366D01*
X01743830Y01998039D02*
X01759177Y01998039D01*
X01766850Y01990366D01*
X01766850Y01982693D01*
X01736157Y01952000D01*
X01766850Y01952000D01*
X01720811Y01952000D02*
X01720811Y01975020D01*
X01713137Y01982693D01*
X01690118Y01982693D01*
X01690118Y01952000D01*
X01674771Y01952000D02*
X01674771Y01975020D01*
X01667098Y01982693D01*
X01651752Y01982693D01*
X01651752Y01967346D02*
X01674771Y01967346D01*
X01674771Y01952000D02*
X01651752Y01952000D01*
X01644078Y01959673D01*
X01651752Y01967346D01*
X01628732Y01975020D02*
X01628732Y01952000D01*
X01628732Y01975020D02*
X01621059Y01982693D01*
X01605712Y01982693D01*
X01598039Y01975020D01*
X01582693Y01990366D02*
X01575020Y01998039D01*
X01559673Y01998039D01*
X01552000Y01990366D01*
X01552000Y01959673D01*
X01559673Y01952000D01*
X01575020Y01952000D01*
X01582693Y01959673D01*
X01598039Y01952000D02*
X01598039Y01998039D01*
X01578732Y01848039D02*
X01578732Y01817346D01*
X01563386Y01802000D01*
X01548039Y01817346D01*
X01548039Y01848039D01*
X01532693Y01802000D02*
X01502000Y01802000D01*
X01502000Y01848039D01*
X01702000Y01848039D02*
X01702000Y01802000D01*
X01702000Y01825020D02*
X01732693Y01825020D01*
X01748039Y01817346D02*
X01763386Y01802000D01*
X01778732Y01817346D01*
X01778732Y01848039D01*
X01748039Y01848039D02*
X01748039Y01817346D01*
X01732693Y01802000D02*
X01732693Y01848039D01*
M02*
