G75*
%MOIN*%
%OFA0B0*%
%FSLAX26Y26*%
%IPPOS*%
%LPD*%
%AMOC8*
5,1,8,0,0,1.08239X$1,22.5*
%
%ADD10C,0.082000*%
%ADD11C,0.082000*%
%ADD12C,0.059496*%
%ADD13C,0.059496*%
%ADD14R,0.047622X0.047622*%
D10*
X01000000Y00213000D02*
X01000000Y00287000D01*
X01100000Y00287000D02*
X01100000Y00213000D01*
X01200000Y00213000D02*
X01200000Y00287000D01*
X01300000Y00287000D02*
X01300000Y00213000D01*
X01137000Y01200000D02*
X01063000Y01200000D01*
X01063000Y01300000D02*
X01137000Y01300000D01*
X01137000Y01400000D02*
X01063000Y01400000D01*
X01063000Y01500000D02*
X01137000Y01500000D01*
X01613000Y01500000D02*
X01687000Y01500000D01*
X01687000Y01400000D02*
X01613000Y01400000D01*
X01613000Y01300000D02*
X01687000Y01300000D01*
X01687000Y01200000D02*
X01613000Y01200000D01*
X00637000Y01250000D02*
X00563000Y01250000D01*
X00563000Y01350000D02*
X00637000Y01350000D01*
X00637000Y01450000D02*
X00563000Y01450000D01*
D11*
X00250000Y00250000D03*
X00250000Y00350000D03*
X00250000Y00450000D03*
X00250000Y00550000D03*
X00250000Y00650000D03*
X00250000Y00750000D03*
X00250000Y00850000D03*
X00250000Y00950000D03*
X00250000Y01050000D03*
X00250000Y01150000D03*
X00250000Y01300000D03*
X00250000Y01400000D03*
X00250000Y01500000D03*
X00250000Y01600000D03*
X00250000Y01700000D03*
X00250000Y01800000D03*
X00250000Y01900000D03*
X00250000Y02000000D03*
X02150000Y02000000D03*
X02150000Y01900000D03*
X02150000Y01800000D03*
X02150000Y01700000D03*
X02150000Y01600000D03*
X02150000Y01500000D03*
X02150000Y01300000D03*
X02150000Y01200000D03*
X02150000Y01100000D03*
X02150000Y01000000D03*
X02150000Y00900000D03*
X02150000Y00800000D03*
X02150000Y00700000D03*
X02150000Y00600000D03*
D12*
X01850000Y01850000D03*
X01850000Y01950000D03*
X01850000Y02050000D03*
X01850000Y02150000D03*
X01850000Y02250000D03*
X01850000Y02350000D03*
X01450000Y02350000D03*
X01450000Y02250000D03*
X01450000Y02150000D03*
X01450000Y02050000D03*
X01450000Y01950000D03*
X01450000Y01850000D03*
X00950000Y01800000D03*
X00950000Y01900000D03*
X00950000Y02000000D03*
X00950000Y02100000D03*
X00950000Y02200000D03*
X00950000Y02300000D03*
X00550000Y02300000D03*
X00550000Y02200000D03*
X00550000Y02100000D03*
X00550000Y02000000D03*
X00550000Y01900000D03*
X00550000Y01800000D03*
D13*
X00700000Y00975748D02*
X00700000Y00924252D01*
X00800000Y00924252D02*
X00800000Y00975748D01*
X00900000Y00975748D02*
X00900000Y00924252D01*
X01000000Y00924252D02*
X01000000Y00975748D01*
X01100000Y00975748D02*
X01100000Y00924252D01*
X01200000Y00924252D02*
X01200000Y00975748D01*
X01300000Y00975748D02*
X01300000Y00924252D01*
X01400000Y00924252D02*
X01400000Y00975748D01*
X01500000Y00975748D02*
X01500000Y00924252D01*
X01600000Y00924252D02*
X01600000Y00975748D01*
X01700000Y00975748D02*
X01700000Y00924252D01*
X01700000Y00675748D02*
X01700000Y00624252D01*
X01600000Y00624252D02*
X01600000Y00675748D01*
X01500000Y00675748D02*
X01500000Y00624252D01*
X01400000Y00624252D02*
X01400000Y00675748D01*
X01300000Y00675748D02*
X01300000Y00624252D01*
X01200000Y00624252D02*
X01200000Y00675748D01*
X01100000Y00675748D02*
X01100000Y00624252D01*
X01000000Y00624252D02*
X01000000Y00675748D01*
X00900000Y00675748D02*
X00900000Y00624252D01*
X00800000Y00624252D02*
X00800000Y00675748D01*
X00700000Y00675748D02*
X00700000Y00624252D01*
D14*
X00800000Y00850000D03*
X00900000Y00750000D03*
X00900000Y00550000D03*
X01100000Y00500000D03*
X01300000Y00500000D03*
X01300000Y01250000D03*
X01650000Y01650000D03*
X01900000Y01900000D03*
X01750000Y02300000D03*
X01500000Y02100000D03*
X01050000Y01900000D03*
X00650000Y01550000D03*
X00400000Y00500000D03*
X01850000Y01000000D03*
M02*
