G75*
%MOIN*%
%OFA0B0*%
%FSLAX26Y26*%
%IPPOS*%
%LPD*%
%AMOC8*
5,1,8,0,0,1.08239X$1,22.5*
%
%ADD10C,0.074000*%
%ADD11C,0.074000*%
%ADD12C,0.051496*%
%ADD13C,0.051496*%
%ADD14C,0.030000*%
%ADD15R,0.039622X0.039622*%
%ADD16C,0.016000*%
D10*
X01000000Y00213000D02*
X01000000Y00287000D01*
X01100000Y00287000D02*
X01100000Y00213000D01*
X01200000Y00213000D02*
X01200000Y00287000D01*
X01300000Y00287000D02*
X01300000Y00213000D01*
X01137000Y01200000D02*
X01063000Y01200000D01*
X01063000Y01300000D02*
X01137000Y01300000D01*
X01137000Y01400000D02*
X01063000Y01400000D01*
X01063000Y01500000D02*
X01137000Y01500000D01*
X01613000Y01500000D02*
X01687000Y01500000D01*
X01687000Y01400000D02*
X01613000Y01400000D01*
X01613000Y01300000D02*
X01687000Y01300000D01*
X01687000Y01200000D02*
X01613000Y01200000D01*
X00637000Y01250000D02*
X00563000Y01250000D01*
X00563000Y01350000D02*
X00637000Y01350000D01*
X00637000Y01450000D02*
X00563000Y01450000D01*
D11*
X00250000Y01400000D03*
X00250000Y01300000D03*
X00250000Y01150000D03*
X00250000Y01050000D03*
X00250000Y00950000D03*
X00250000Y00850000D03*
X00250000Y00750000D03*
X00250000Y00650000D03*
X00250000Y00550000D03*
X00250000Y00450000D03*
X00250000Y00350000D03*
X00250000Y00250000D03*
X00250000Y01500000D03*
X00250000Y01600000D03*
X00250000Y01700000D03*
X00250000Y01800000D03*
X00250000Y01900000D03*
X00250000Y02000000D03*
X02150000Y02000000D03*
X02150000Y01900000D03*
X02150000Y01800000D03*
X02150000Y01700000D03*
X02150000Y01600000D03*
X02150000Y01500000D03*
X02150000Y01300000D03*
X02150000Y01200000D03*
X02150000Y01100000D03*
X02150000Y01000000D03*
X02150000Y00900000D03*
X02150000Y00800000D03*
X02150000Y00700000D03*
X02150000Y00600000D03*
D12*
X01850000Y01850000D03*
X01850000Y01950000D03*
X01850000Y02050000D03*
X01850000Y02150000D03*
X01850000Y02250000D03*
X01850000Y02350000D03*
X01450000Y02350000D03*
X01450000Y02250000D03*
X01450000Y02150000D03*
X01450000Y02050000D03*
X01450000Y01950000D03*
X01450000Y01850000D03*
X00950000Y01800000D03*
X00950000Y01900000D03*
X00950000Y02000000D03*
X00950000Y02100000D03*
X00950000Y02200000D03*
X00950000Y02300000D03*
X00550000Y02300000D03*
X00550000Y02200000D03*
X00550000Y02100000D03*
X00550000Y02000000D03*
X00550000Y01900000D03*
X00550000Y01800000D03*
D13*
X00700000Y00975748D02*
X00700000Y00924252D01*
X00800000Y00924252D02*
X00800000Y00975748D01*
X00900000Y00975748D02*
X00900000Y00924252D01*
X01000000Y00924252D02*
X01000000Y00975748D01*
X01100000Y00975748D02*
X01100000Y00924252D01*
X01200000Y00924252D02*
X01200000Y00975748D01*
X01300000Y00975748D02*
X01300000Y00924252D01*
X01400000Y00924252D02*
X01400000Y00975748D01*
X01500000Y00975748D02*
X01500000Y00924252D01*
X01600000Y00924252D02*
X01600000Y00975748D01*
X01700000Y00975748D02*
X01700000Y00924252D01*
X01700000Y00675748D02*
X01700000Y00624252D01*
X01600000Y00624252D02*
X01600000Y00675748D01*
X01500000Y00675748D02*
X01500000Y00624252D01*
X01400000Y00624252D02*
X01400000Y00675748D01*
X01300000Y00675748D02*
X01300000Y00624252D01*
X01200000Y00624252D02*
X01200000Y00675748D01*
X01100000Y00675748D02*
X01100000Y00624252D01*
X01000000Y00624252D02*
X01000000Y00675748D01*
X00900000Y00675748D02*
X00900000Y00624252D01*
X00800000Y00624252D02*
X00800000Y00675748D01*
X00700000Y00675748D02*
X00700000Y00624252D01*
D14*
X00625000Y00700000D02*
X00675000Y00750000D01*
X00825000Y00750000D01*
X01000000Y00925000D01*
X01000000Y00950000D01*
X00900000Y00975000D02*
X01000000Y01075000D01*
X01325000Y01075000D01*
X01375000Y01125000D01*
X01725000Y01125000D01*
X01775000Y01175000D01*
X01775000Y02175000D01*
X01850000Y02250000D01*
X01850000Y02350000D02*
X01800000Y02350000D01*
X01750000Y02300000D01*
X01725000Y02425000D02*
X01450000Y02150000D01*
X01125000Y02475000D01*
X00875000Y02475000D01*
X00700000Y02300000D01*
X00700000Y02250000D01*
X00550000Y02100000D01*
X00550000Y02200000D02*
X00375000Y02025000D01*
X00375000Y01600000D01*
X00275000Y01500000D01*
X00250000Y01500000D01*
X00250000Y01600000D02*
X00275000Y01600000D01*
X00325000Y01650000D01*
X00325000Y02075000D01*
X00550000Y02300000D01*
X00650000Y02525000D02*
X00175000Y02050000D01*
X00175000Y01000000D01*
X00225000Y00950000D01*
X00250000Y00950000D01*
X00250000Y00850000D02*
X00225000Y00850000D01*
X00125000Y00950000D01*
X00125000Y02075000D01*
X00625000Y02575000D01*
X01325000Y02575000D01*
X01525000Y02375000D01*
X01525000Y02325000D01*
X01450000Y02250000D01*
X01450000Y02350000D02*
X01275000Y02525000D01*
X00650000Y02525000D01*
X00750000Y02275000D02*
X00750000Y01225000D01*
X00275000Y00750000D01*
X00250000Y00750000D01*
X00250000Y00650000D02*
X00275000Y00650000D01*
X00800000Y01175000D01*
X00800000Y02250000D01*
X00925000Y02375000D01*
X00975000Y02375000D01*
X01225000Y02125000D01*
X01225000Y02075000D01*
X01450000Y01850000D01*
X01450000Y01950000D02*
X01275000Y02125000D01*
X01275000Y02150000D01*
X01000000Y02425000D01*
X00900000Y02425000D01*
X00750000Y02275000D01*
X00950000Y02300000D02*
X01175000Y02075000D01*
X01175000Y02050000D01*
X01275000Y01950000D01*
X01275000Y01425000D01*
X01150000Y01300000D01*
X01100000Y01300000D01*
X01100000Y01200000D02*
X01150000Y01200000D01*
X01250000Y01300000D01*
X01300000Y01250000D01*
X01250000Y01300000D02*
X01525000Y01575000D01*
X01525000Y01975000D01*
X01450000Y02050000D01*
X01500000Y02100000D01*
X01725000Y02425000D02*
X01875000Y02425000D01*
X02225000Y02075000D01*
X02225000Y00950000D01*
X02175000Y00900000D01*
X02150000Y00900000D01*
X02075000Y00950000D02*
X02125000Y01000000D01*
X02150000Y01000000D01*
X02075000Y00950000D02*
X01975000Y00950000D01*
X01975000Y02075000D01*
X01850000Y02150000D01*
X01850000Y01950000D02*
X01900000Y01900000D01*
X01850000Y01850000D02*
X01850000Y01175000D01*
X01750000Y01075000D01*
X01400000Y01075000D01*
X01300000Y00975000D01*
X01300000Y00950000D01*
X01300000Y01125000D02*
X01375000Y01200000D01*
X01650000Y01200000D01*
X01600000Y00950000D02*
X01600000Y00875000D01*
X01775000Y00700000D01*
X01775000Y00600000D01*
X01425000Y00250000D01*
X01300000Y00250000D01*
X01200000Y00300000D02*
X01275000Y00375000D01*
X01350000Y00375000D01*
X01600000Y00625000D01*
X01600000Y00650000D01*
X01400000Y00650000D02*
X01400000Y00675000D01*
X01325000Y00750000D01*
X00975000Y00750000D01*
X00900000Y00675000D01*
X00900000Y00650000D01*
X00900000Y00550000D01*
X00800000Y00650000D02*
X00900000Y00750000D01*
X01000000Y00650000D02*
X01000000Y00250000D01*
X01100000Y00250000D02*
X01100000Y00200000D01*
X01025000Y00125000D01*
X00975000Y00125000D01*
X00625000Y00475000D01*
X00625000Y00700000D01*
X00575000Y00725000D02*
X00575000Y00450000D01*
X00950000Y00075000D01*
X01325000Y00075000D01*
X01825000Y00575000D01*
X01825000Y00950000D01*
X01700000Y00950000D01*
X01825000Y00950000D02*
X01850000Y00950000D01*
X01850000Y01000000D01*
X01850000Y00950000D02*
X01975000Y00950000D01*
X01650000Y01500000D02*
X01650000Y01650000D01*
X01300000Y01125000D02*
X01025000Y01125000D01*
X00950000Y01200000D01*
X00950000Y01800000D01*
X00950000Y01900000D02*
X01100000Y01750000D01*
X01100000Y01500000D01*
X01100000Y01400000D02*
X01150000Y01400000D01*
X01225000Y01475000D01*
X01225000Y01925000D01*
X00950000Y02200000D01*
X00950000Y02100000D02*
X00850000Y02000000D01*
X00850000Y01025000D01*
X00775000Y00950000D01*
X00800000Y00950000D01*
X00800000Y00850000D01*
X00775000Y00950000D02*
X00700000Y00950000D01*
X00700000Y00850000D01*
X00575000Y00725000D01*
X00400000Y00500000D02*
X00300000Y00500000D01*
X00250000Y00550000D01*
X00250000Y01050000D02*
X00400000Y01050000D01*
X00600000Y01250000D01*
X00600000Y01350000D02*
X00550000Y01350000D01*
X00350000Y01150000D01*
X00250000Y01150000D01*
X00250000Y01300000D02*
X00300000Y01300000D01*
X00550000Y01550000D01*
X00550000Y01800000D01*
X00475000Y01825000D02*
X00550000Y01900000D01*
X00475000Y01825000D02*
X00475000Y01600000D01*
X00275000Y01400000D01*
X00250000Y01400000D01*
X00600000Y01450000D02*
X00600000Y01500000D01*
X00650000Y01550000D01*
X01050000Y01900000D02*
X00950000Y02000000D01*
X00900000Y00975000D02*
X00900000Y00950000D01*
X01100000Y00650000D02*
X01100000Y00500000D01*
X01200000Y00300000D02*
X01200000Y00250000D01*
X01300000Y00500000D02*
X01300000Y00650000D01*
D15*
X01300000Y00500000D03*
X01100000Y00500000D03*
X00900000Y00550000D03*
X00900000Y00750000D03*
X00800000Y00850000D03*
X00400000Y00500000D03*
X00650000Y01550000D03*
X01050000Y01900000D03*
X01500000Y02100000D03*
X01750000Y02300000D03*
X01900000Y01900000D03*
X01650000Y01650000D03*
X01300000Y01250000D03*
X01850000Y01000000D03*
D16*
X00048000Y00048000D02*
X00048000Y02651606D01*
X02339008Y02651606D01*
X02339008Y00048000D01*
X01358811Y00048000D01*
X01849358Y00538546D01*
X01861453Y00550642D01*
X01868000Y00566447D01*
X01868000Y00907000D01*
X02083553Y00907000D01*
X02085000Y00907599D01*
X02085000Y00887071D01*
X02094896Y00863180D01*
X02108076Y00850000D01*
X02094896Y00836820D01*
X02085000Y00812929D01*
X02085000Y00787071D01*
X02094896Y00763180D01*
X02108076Y00750000D01*
X02094896Y00736820D01*
X02085000Y00712929D01*
X02085000Y00687071D01*
X02094896Y00663180D01*
X02108076Y00650000D01*
X02094896Y00636820D01*
X02085000Y00612929D01*
X02085000Y00587071D01*
X02094896Y00563180D01*
X02113180Y00544896D01*
X02137071Y00535000D01*
X02162929Y00535000D01*
X02186820Y00544896D01*
X02205104Y00563180D01*
X02215000Y00587071D01*
X02215000Y00612929D01*
X02205104Y00636820D01*
X02191924Y00650000D01*
X02205104Y00663180D01*
X02215000Y00687071D01*
X02215000Y00712929D01*
X02205104Y00736820D01*
X02191924Y00750000D01*
X02205104Y00763180D01*
X02215000Y00787071D01*
X02215000Y00812929D01*
X02205104Y00836820D01*
X02191924Y00850000D01*
X02205104Y00863180D01*
X02209427Y00873616D01*
X02249358Y00913546D01*
X02261453Y00925642D01*
X02268000Y00941447D01*
X02268000Y02083553D01*
X02261453Y02099358D01*
X01911453Y02449358D01*
X01899358Y02461453D01*
X01883553Y02468000D01*
X01716447Y02468000D01*
X01700642Y02461453D01*
X01568000Y02328811D01*
X01568000Y02383553D01*
X01561453Y02399358D01*
X01361453Y02599358D01*
X01349358Y02611453D01*
X01333553Y02618000D01*
X00616447Y02618000D01*
X00600642Y02611453D01*
X00100642Y02111453D01*
X00088546Y02099358D01*
X00082000Y02083553D01*
X00082000Y00941447D01*
X00088546Y00925642D01*
X00188546Y00825642D01*
X00190573Y00823615D01*
X00194896Y00813180D01*
X00208076Y00800000D01*
X00194896Y00786820D01*
X00185000Y00762929D01*
X00185000Y00737071D01*
X00194896Y00713180D01*
X00208076Y00700000D01*
X00194896Y00686820D01*
X00185000Y00662929D01*
X00185000Y00637071D01*
X00194896Y00613180D01*
X00213180Y00594896D01*
X00216392Y00593566D01*
X00214170Y00591952D01*
X00208048Y00585830D01*
X00202960Y00578826D01*
X00199030Y00571113D01*
X00196354Y00562879D01*
X00195000Y00554329D01*
X00195000Y00552000D01*
X00247999Y00552000D01*
X00247999Y00548000D01*
X00195000Y00548000D01*
X00195000Y00545671D01*
X00196354Y00537121D01*
X00199030Y00528887D01*
X00202960Y00521174D01*
X00208048Y00514170D01*
X00214170Y00508048D01*
X00216392Y00506434D01*
X00213180Y00505104D01*
X00194896Y00486820D01*
X00185000Y00462929D01*
X00185000Y00437071D01*
X00194896Y00413180D01*
X00208076Y00400000D01*
X00194896Y00386820D01*
X00185000Y00362929D01*
X00185000Y00337071D01*
X00194896Y00313180D01*
X00208076Y00300000D01*
X00194896Y00286820D01*
X00185000Y00262929D01*
X00185000Y00237071D01*
X00194896Y00213180D01*
X00213180Y00194896D01*
X00237071Y00185000D01*
X00262929Y00185000D01*
X00286820Y00194896D01*
X00305104Y00213180D01*
X00315000Y00237071D01*
X00315000Y00262929D01*
X00305104Y00286820D01*
X00291924Y00300000D01*
X00305104Y00313180D01*
X00315000Y00337071D01*
X00315000Y00362929D01*
X00305104Y00386820D01*
X00291924Y00400000D01*
X00305104Y00413180D01*
X00315000Y00437071D01*
X00315000Y00462929D01*
X00305104Y00486820D01*
X00286820Y00505104D01*
X00283608Y00506434D01*
X00285830Y00508048D01*
X00291952Y00514170D01*
X00297040Y00521174D01*
X00300970Y00528887D01*
X00303646Y00537121D01*
X00305000Y00545671D01*
X00305000Y00548000D01*
X00252001Y00548000D01*
X00252001Y00552000D01*
X00305000Y00552000D01*
X00305000Y00554329D01*
X00303646Y00562879D01*
X00300970Y00571113D01*
X00297040Y00578826D01*
X00291952Y00585830D01*
X00285830Y00591952D01*
X00283608Y00593566D01*
X00286820Y00594896D01*
X00305104Y00613180D01*
X00309426Y00623615D01*
X00311453Y00625642D01*
X00646252Y00960441D01*
X00646252Y00913561D01*
X00654435Y00893806D01*
X00657000Y00891241D01*
X00657000Y00867811D01*
X00550642Y00761453D01*
X00538546Y00749358D01*
X00532000Y00733553D01*
X00532000Y00441447D01*
X00538546Y00425642D01*
X00913546Y00050642D01*
X00916189Y00048000D01*
X00048000Y00048000D01*
X00048000Y00063994D02*
X00900195Y00063994D01*
X00884196Y00079993D02*
X00048000Y00079993D01*
X00048000Y00095991D02*
X00868198Y00095991D01*
X00852199Y00111990D02*
X00048000Y00111990D01*
X00048000Y00127988D02*
X00836201Y00127988D01*
X00820202Y00143987D02*
X00048000Y00143987D01*
X00048000Y00159985D02*
X00804203Y00159985D01*
X00788205Y00175984D02*
X00048000Y00175984D01*
X00048000Y00191982D02*
X00220214Y00191982D01*
X00200095Y00207981D02*
X00048000Y00207981D01*
X00048000Y00223979D02*
X00190422Y00223979D01*
X00185000Y00239978D02*
X00048000Y00239978D01*
X00048000Y00255976D02*
X00185000Y00255976D01*
X00188747Y00271975D02*
X00048000Y00271975D01*
X00048000Y00287973D02*
X00196050Y00287973D01*
X00204104Y00303972D02*
X00048000Y00303972D01*
X00048000Y00319970D02*
X00192083Y00319970D01*
X00185456Y00335969D02*
X00048000Y00335969D01*
X00048000Y00351968D02*
X00185000Y00351968D01*
X00187086Y00367966D02*
X00048000Y00367966D01*
X00048000Y00383965D02*
X00193713Y00383965D01*
X00208039Y00399963D02*
X00048000Y00399963D01*
X00048000Y00415962D02*
X00193744Y00415962D01*
X00187117Y00431960D02*
X00048000Y00431960D01*
X00048000Y00447959D02*
X00185000Y00447959D01*
X00185426Y00463957D02*
X00048000Y00463957D01*
X00048000Y00479956D02*
X00192053Y00479956D01*
X00204030Y00495954D02*
X00048000Y00495954D01*
X00048000Y00511953D02*
X00210266Y00511953D01*
X00199506Y00527951D02*
X00048000Y00527951D01*
X00048000Y00543950D02*
X00195273Y00543950D01*
X00195890Y00559948D02*
X00048000Y00559948D01*
X00048000Y00575947D02*
X00201493Y00575947D01*
X00214164Y00591945D02*
X00048000Y00591945D01*
X00048000Y00607944D02*
X00200132Y00607944D01*
X00190438Y00623942D02*
X00048000Y00623942D01*
X00048000Y00639941D02*
X00185000Y00639941D01*
X00185000Y00655939D02*
X00048000Y00655939D01*
X00048000Y00671938D02*
X00188732Y00671938D01*
X00196013Y00687937D02*
X00048000Y00687937D01*
X00048000Y00703935D02*
X00204141Y00703935D01*
X00192098Y00719934D02*
X00048000Y00719934D01*
X00048000Y00735932D02*
X00185472Y00735932D01*
X00185000Y00751931D02*
X00048000Y00751931D01*
X00048000Y00767929D02*
X00187071Y00767929D01*
X00193698Y00783928D02*
X00048000Y00783928D01*
X00048000Y00799926D02*
X00208002Y00799926D01*
X00193759Y00815925D02*
X00048000Y00815925D01*
X00048000Y00831923D02*
X00182266Y00831923D01*
X00166267Y00847922D02*
X00048000Y00847922D01*
X00048000Y00863920D02*
X00150268Y00863920D01*
X00134270Y00879919D02*
X00048000Y00879919D01*
X00048000Y00895917D02*
X00118271Y00895917D01*
X00102273Y00911916D02*
X00048000Y00911916D01*
X00048000Y00927914D02*
X00087605Y00927914D01*
X00082000Y00943913D02*
X00048000Y00943913D01*
X00048000Y00959911D02*
X00082000Y00959911D01*
X00082000Y00975910D02*
X00048000Y00975910D01*
X00048000Y00991908D02*
X00082000Y00991908D01*
X00082000Y01007907D02*
X00048000Y01007907D01*
X00048000Y01023906D02*
X00082000Y01023906D01*
X00082000Y01039904D02*
X00048000Y01039904D01*
X00048000Y01055903D02*
X00082000Y01055903D01*
X00082000Y01071901D02*
X00048000Y01071901D01*
X00048000Y01087900D02*
X00082000Y01087900D01*
X00082000Y01103898D02*
X00048000Y01103898D01*
X00048000Y01119897D02*
X00082000Y01119897D01*
X00082000Y01135895D02*
X00048000Y01135895D01*
X00048000Y01151894D02*
X00082000Y01151894D01*
X00082000Y01167892D02*
X00048000Y01167892D01*
X00048000Y01183891D02*
X00082000Y01183891D01*
X00082000Y01199889D02*
X00048000Y01199889D01*
X00048000Y01215888D02*
X00082000Y01215888D01*
X00082000Y01231886D02*
X00048000Y01231886D01*
X00048000Y01247885D02*
X00082000Y01247885D01*
X00082000Y01263883D02*
X00048000Y01263883D01*
X00048000Y01279882D02*
X00082000Y01279882D01*
X00082000Y01295880D02*
X00048000Y01295880D01*
X00048000Y01311879D02*
X00082000Y01311879D01*
X00082000Y01327877D02*
X00048000Y01327877D01*
X00048000Y01343876D02*
X00082000Y01343876D01*
X00082000Y01359875D02*
X00048000Y01359875D01*
X00048000Y01375873D02*
X00082000Y01375873D01*
X00082000Y01391872D02*
X00048000Y01391872D01*
X00048000Y01407870D02*
X00082000Y01407870D01*
X00082000Y01423869D02*
X00048000Y01423869D01*
X00048000Y01439867D02*
X00082000Y01439867D01*
X00082000Y01455866D02*
X00048000Y01455866D01*
X00048000Y01471864D02*
X00082000Y01471864D01*
X00082000Y01487863D02*
X00048000Y01487863D01*
X00048000Y01503861D02*
X00082000Y01503861D01*
X00082000Y01519860D02*
X00048000Y01519860D01*
X00048000Y01535858D02*
X00082000Y01535858D01*
X00082000Y01551857D02*
X00048000Y01551857D01*
X00048000Y01567855D02*
X00082000Y01567855D01*
X00082000Y01583854D02*
X00048000Y01583854D01*
X00048000Y01599852D02*
X00082000Y01599852D01*
X00082000Y01615851D02*
X00048000Y01615851D01*
X00048000Y01631849D02*
X00082000Y01631849D01*
X00082000Y01647848D02*
X00048000Y01647848D01*
X00048000Y01663846D02*
X00082000Y01663846D01*
X00082000Y01679845D02*
X00048000Y01679845D01*
X00048000Y01695844D02*
X00082000Y01695844D01*
X00082000Y01711842D02*
X00048000Y01711842D01*
X00048000Y01727841D02*
X00082000Y01727841D01*
X00082000Y01743839D02*
X00048000Y01743839D01*
X00048000Y01759838D02*
X00082000Y01759838D01*
X00082000Y01775836D02*
X00048000Y01775836D01*
X00048000Y01791835D02*
X00082000Y01791835D01*
X00082000Y01807833D02*
X00048000Y01807833D01*
X00048000Y01823832D02*
X00082000Y01823832D01*
X00082000Y01839830D02*
X00048000Y01839830D01*
X00048000Y01855829D02*
X00082000Y01855829D01*
X00082000Y01871827D02*
X00048000Y01871827D01*
X00048000Y01887826D02*
X00082000Y01887826D01*
X00082000Y01903824D02*
X00048000Y01903824D01*
X00048000Y01919823D02*
X00082000Y01919823D01*
X00082000Y01935821D02*
X00048000Y01935821D01*
X00048000Y01951820D02*
X00082000Y01951820D01*
X00082000Y01967818D02*
X00048000Y01967818D01*
X00048000Y01983817D02*
X00082000Y01983817D01*
X00082000Y01999815D02*
X00048000Y01999815D01*
X00048000Y02015814D02*
X00082000Y02015814D01*
X00082000Y02031813D02*
X00048000Y02031813D01*
X00048000Y02047811D02*
X00082000Y02047811D01*
X00082000Y02063810D02*
X00048000Y02063810D01*
X00048000Y02079808D02*
X00082000Y02079808D01*
X00087076Y02095807D02*
X00048000Y02095807D01*
X00048000Y02111805D02*
X00100994Y02111805D01*
X00116992Y02127804D02*
X00048000Y02127804D01*
X00048000Y02143802D02*
X00132991Y02143802D01*
X00148990Y02159801D02*
X00048000Y02159801D01*
X00048000Y02175799D02*
X00164988Y02175799D01*
X00180987Y02191798D02*
X00048000Y02191798D01*
X00048000Y02207796D02*
X00196985Y02207796D01*
X00212984Y02223795D02*
X00048000Y02223795D01*
X00048000Y02239793D02*
X00228982Y02239793D01*
X00244981Y02255792D02*
X00048000Y02255792D01*
X00048000Y02271790D02*
X00260979Y02271790D01*
X00276978Y02287789D02*
X00048000Y02287789D01*
X00048000Y02303787D02*
X00292976Y02303787D01*
X00308975Y02319786D02*
X00048000Y02319786D01*
X00048000Y02335784D02*
X00324973Y02335784D01*
X00340972Y02351783D02*
X00048000Y02351783D01*
X00048000Y02367781D02*
X00356970Y02367781D01*
X00372969Y02383780D02*
X00048000Y02383780D01*
X00048000Y02399779D02*
X00388967Y02399779D01*
X00404966Y02415777D02*
X00048000Y02415777D01*
X00048000Y02431776D02*
X00420964Y02431776D01*
X00436963Y02447774D02*
X00048000Y02447774D01*
X00048000Y02463773D02*
X00452961Y02463773D01*
X00468960Y02479771D02*
X00048000Y02479771D01*
X00048000Y02495770D02*
X00484959Y02495770D01*
X00500957Y02511768D02*
X00048000Y02511768D01*
X00048000Y02527767D02*
X00516956Y02527767D01*
X00532954Y02543765D02*
X00048000Y02543765D01*
X00048000Y02559764D02*
X00548953Y02559764D01*
X00564951Y02575762D02*
X00048000Y02575762D01*
X00048000Y02591761D02*
X00580950Y02591761D01*
X00596948Y02607759D02*
X00048000Y02607759D01*
X00048000Y02623758D02*
X02339008Y02623758D01*
X02339008Y02639756D02*
X00048000Y02639756D01*
X00569739Y02050000D02*
X00580446Y02054435D01*
X00595565Y02069554D01*
X00603748Y02089309D01*
X00603748Y02092937D01*
X00707000Y02196189D01*
X00707000Y01242811D01*
X00702000Y01237811D01*
X00702000Y01262929D01*
X00692104Y01286820D01*
X00678924Y01300000D01*
X00692104Y01313180D01*
X00702000Y01337071D01*
X00702000Y01362929D01*
X00692104Y01386820D01*
X00673820Y01405104D01*
X00670608Y01406434D01*
X00672830Y01408048D01*
X00678952Y01414170D01*
X00684040Y01421174D01*
X00687970Y01428887D01*
X00690646Y01437121D01*
X00692000Y01445671D01*
X00692000Y01447000D01*
X00603001Y01447000D01*
X00603001Y01453000D01*
X00692000Y01453000D01*
X00692000Y01454329D01*
X00690646Y01462879D01*
X00687970Y01471113D01*
X00684040Y01478826D01*
X00678952Y01485830D01*
X00672830Y01491952D01*
X00665826Y01497040D01*
X00658113Y01500970D01*
X00649879Y01503646D01*
X00641329Y01505000D01*
X00603000Y01505000D01*
X00603000Y01453001D01*
X00597000Y01453001D01*
X00597000Y01505000D01*
X00565811Y01505000D01*
X00586453Y01525642D01*
X00593000Y01541447D01*
X00593000Y01766989D01*
X00595565Y01769554D01*
X00603748Y01789309D01*
X00603748Y01810691D01*
X00595565Y01830446D01*
X00580446Y01845565D01*
X00569739Y01850000D01*
X00580446Y01854435D01*
X00595565Y01869554D01*
X00603748Y01889309D01*
X00603748Y01910691D01*
X00595565Y01930446D01*
X00580446Y01945565D01*
X00569739Y01950000D01*
X00580446Y01954435D01*
X00595565Y01969554D01*
X00603748Y01989309D01*
X00603748Y02010691D01*
X00595565Y02030446D01*
X00580446Y02045565D01*
X00569739Y02050000D01*
X00575024Y02047811D02*
X00707000Y02047811D01*
X00707000Y02031813D02*
X00594199Y02031813D01*
X00601626Y02015814D02*
X00707000Y02015814D01*
X00707000Y01999815D02*
X00603748Y01999815D01*
X00601473Y01983817D02*
X00707000Y01983817D01*
X00707000Y01967818D02*
X00593830Y01967818D01*
X00574133Y01951820D02*
X00707000Y01951820D01*
X00707000Y01935821D02*
X00590190Y01935821D01*
X00599966Y01919823D02*
X00707000Y01919823D01*
X00707000Y01903824D02*
X00603748Y01903824D01*
X00603134Y01887826D02*
X00707000Y01887826D01*
X00707000Y01871827D02*
X00596507Y01871827D01*
X00581840Y01855829D02*
X00707000Y01855829D01*
X00707000Y01839830D02*
X00586181Y01839830D01*
X00598305Y01823832D02*
X00707000Y01823832D01*
X00707000Y01807833D02*
X00603748Y01807833D01*
X00603748Y01791835D02*
X00707000Y01791835D01*
X00707000Y01775836D02*
X00598167Y01775836D01*
X00593000Y01759838D02*
X00707000Y01759838D01*
X00707000Y01743839D02*
X00593000Y01743839D01*
X00593000Y01727841D02*
X00707000Y01727841D01*
X00707000Y01711842D02*
X00593000Y01711842D01*
X00593000Y01695844D02*
X00707000Y01695844D01*
X00707000Y01679845D02*
X00593000Y01679845D01*
X00593000Y01663846D02*
X00707000Y01663846D01*
X00707000Y01647848D02*
X00593000Y01647848D01*
X00593000Y01631849D02*
X00707000Y01631849D01*
X00707000Y01615851D02*
X00593000Y01615851D01*
X00593000Y01599852D02*
X00707000Y01599852D01*
X00707000Y01583854D02*
X00593000Y01583854D01*
X00593000Y01567855D02*
X00707000Y01567855D01*
X00707000Y01551857D02*
X00593000Y01551857D01*
X00590685Y01535858D02*
X00707000Y01535858D01*
X00707000Y01519860D02*
X00580671Y01519860D01*
X00597000Y01503861D02*
X00603000Y01503861D01*
X00603000Y01487863D02*
X00597000Y01487863D01*
X00597000Y01471864D02*
X00603000Y01471864D01*
X00603000Y01455866D02*
X00597000Y01455866D01*
X00596999Y01453000D02*
X00596999Y01447000D01*
X00508000Y01447000D01*
X00508000Y01445671D01*
X00509354Y01437121D01*
X00512030Y01428887D01*
X00515960Y01421174D01*
X00521048Y01414170D01*
X00527170Y01408048D01*
X00529392Y01406434D01*
X00526180Y01405104D01*
X00507896Y01386820D01*
X00498000Y01362929D01*
X00498000Y01358811D01*
X00332189Y01193000D01*
X00298924Y01193000D01*
X00286820Y01205104D01*
X00262929Y01215000D01*
X00237071Y01215000D01*
X00218000Y01207101D01*
X00218000Y01242899D01*
X00237071Y01235000D01*
X00262929Y01235000D01*
X00286820Y01244896D01*
X00298924Y01257000D01*
X00308553Y01257000D01*
X00324358Y01263546D01*
X00336453Y01275642D01*
X00513811Y01453000D01*
X00596999Y01453000D01*
X00648518Y01503861D02*
X00707000Y01503861D01*
X00707000Y01487863D02*
X00676919Y01487863D01*
X00687587Y01471864D02*
X00707000Y01471864D01*
X00707000Y01455866D02*
X00691757Y01455866D01*
X00691080Y01439867D02*
X00707000Y01439867D01*
X00707000Y01423869D02*
X00685413Y01423869D01*
X00672585Y01407870D02*
X00707000Y01407870D01*
X00707000Y01391872D02*
X00687052Y01391872D01*
X00696638Y01375873D02*
X00707000Y01375873D01*
X00707000Y01359875D02*
X00702000Y01359875D01*
X00702000Y01343876D02*
X00707000Y01343876D01*
X00707000Y01327877D02*
X00698192Y01327877D01*
X00690803Y01311879D02*
X00707000Y01311879D01*
X00707000Y01295880D02*
X00683043Y01295880D01*
X00694978Y01279882D02*
X00707000Y01279882D01*
X00707000Y01263883D02*
X00701605Y01263883D01*
X00702000Y01247885D02*
X00707000Y01247885D01*
X00527415Y01407870D02*
X00468681Y01407870D01*
X00452683Y01391872D02*
X00512948Y01391872D01*
X00503362Y01375873D02*
X00436684Y01375873D01*
X00420686Y01359875D02*
X00498000Y01359875D01*
X00483065Y01343876D02*
X00404687Y01343876D01*
X00388689Y01327877D02*
X00467066Y01327877D01*
X00451068Y01311879D02*
X00372690Y01311879D01*
X00356692Y01295880D02*
X00435069Y01295880D01*
X00419071Y01279882D02*
X00340693Y01279882D01*
X00324695Y01263883D02*
X00403072Y01263883D01*
X00387074Y01247885D02*
X00289809Y01247885D01*
X00292034Y01199889D02*
X00339078Y01199889D01*
X00355077Y01215888D02*
X00218000Y01215888D01*
X00218000Y01231886D02*
X00371075Y01231886D01*
X00484680Y01423869D02*
X00514587Y01423869D01*
X00508919Y01439867D02*
X00500678Y01439867D01*
X00645722Y00959911D02*
X00646252Y00959911D01*
X00646252Y00943913D02*
X00629724Y00943913D01*
X00613725Y00927914D02*
X00646252Y00927914D01*
X00646933Y00911916D02*
X00597727Y00911916D01*
X00581728Y00895917D02*
X00653560Y00895917D01*
X00657000Y00879919D02*
X00565730Y00879919D01*
X00549731Y00863920D02*
X00653109Y00863920D01*
X00637111Y00847922D02*
X00533733Y00847922D01*
X00517734Y00831923D02*
X00621112Y00831923D01*
X00605114Y00815925D02*
X00501736Y00815925D01*
X00485737Y00799926D02*
X00589115Y00799926D01*
X00573117Y00783928D02*
X00469739Y00783928D01*
X00453740Y00767929D02*
X00557118Y00767929D01*
X00541119Y00751931D02*
X00437742Y00751931D01*
X00421743Y00735932D02*
X00532985Y00735932D01*
X00532000Y00719934D02*
X00405745Y00719934D01*
X00389746Y00703935D02*
X00532000Y00703935D01*
X00532000Y00687937D02*
X00373748Y00687937D01*
X00357749Y00671938D02*
X00532000Y00671938D01*
X00532000Y00655939D02*
X00341750Y00655939D01*
X00325752Y00639941D02*
X00532000Y00639941D01*
X00532000Y00623942D02*
X00309753Y00623942D01*
X00299868Y00607944D02*
X00532000Y00607944D01*
X00532000Y00591945D02*
X00285836Y00591945D01*
X00298507Y00575947D02*
X00532000Y00575947D01*
X00532000Y00559948D02*
X00304110Y00559948D01*
X00304727Y00543950D02*
X00532000Y00543950D01*
X00532000Y00527951D02*
X00300493Y00527951D01*
X00289734Y00511953D02*
X00532000Y00511953D01*
X00532000Y00495954D02*
X00295969Y00495954D01*
X00307947Y00479956D02*
X00532000Y00479956D01*
X00532000Y00463957D02*
X00314574Y00463957D01*
X00315000Y00447959D02*
X00532000Y00447959D01*
X00535929Y00431960D02*
X00312883Y00431960D01*
X00306256Y00415962D02*
X00548227Y00415962D01*
X00564226Y00399963D02*
X00291961Y00399963D01*
X00306287Y00383965D02*
X00580224Y00383965D01*
X00596223Y00367966D02*
X00312914Y00367966D01*
X00315000Y00351968D02*
X00612221Y00351968D01*
X00628220Y00335969D02*
X00314544Y00335969D01*
X00307917Y00319970D02*
X00644218Y00319970D01*
X00660217Y00303972D02*
X00295896Y00303972D01*
X00303950Y00287973D02*
X00676215Y00287973D01*
X00692214Y00271975D02*
X00311253Y00271975D01*
X00315000Y00255976D02*
X00708212Y00255976D01*
X00724211Y00239978D02*
X00315000Y00239978D01*
X00309577Y00223979D02*
X00740209Y00223979D01*
X00756208Y00207981D02*
X00299905Y00207981D01*
X00279786Y00191982D02*
X00772206Y00191982D01*
X01043000Y00335924D02*
X01043000Y00591241D01*
X01045565Y00593806D01*
X01053748Y00613561D01*
X01053748Y00686439D01*
X01045565Y00706194D01*
X01044759Y00707000D01*
X01069383Y00707000D01*
X01066631Y00704248D01*
X01062583Y00698677D01*
X01059457Y00692541D01*
X01057329Y00685992D01*
X01056252Y00679191D01*
X01056252Y00650000D01*
X01099999Y00650000D01*
X01099999Y00649999D01*
X01100000Y00649999D01*
X01100000Y00580504D01*
X01103443Y00580504D01*
X01110244Y00581581D01*
X01116793Y00583709D01*
X01122929Y00586835D01*
X01128500Y00590883D01*
X01133369Y00595752D01*
X01137417Y00601323D01*
X01140543Y00607459D01*
X01142671Y00614008D01*
X01143748Y00620809D01*
X01143748Y00649999D01*
X01100001Y00649999D01*
X01100001Y00650000D01*
X01143748Y00650000D01*
X01143748Y00679191D01*
X01142671Y00685992D01*
X01140543Y00692541D01*
X01137417Y00698677D01*
X01133369Y00704248D01*
X01130617Y00707000D01*
X01155241Y00707000D01*
X01154435Y00706194D01*
X01146252Y00686439D01*
X01146252Y00613561D01*
X01154435Y00593806D01*
X01169554Y00578687D01*
X01189309Y00570504D01*
X01210691Y00570504D01*
X01230446Y00578687D01*
X01245565Y00593806D01*
X01250000Y00604512D01*
X01254435Y00593806D01*
X01257000Y00591241D01*
X01257000Y00536220D01*
X01256452Y00535672D01*
X01252189Y00525381D01*
X01252189Y00474619D01*
X01256452Y00464328D01*
X01264328Y00456452D01*
X01274619Y00452189D01*
X01325381Y00452189D01*
X01335672Y00456452D01*
X01343548Y00464328D01*
X01347811Y00474619D01*
X01347811Y00525381D01*
X01343548Y00535672D01*
X01343000Y00536220D01*
X01343000Y00591241D01*
X01345565Y00593806D01*
X01350000Y00604512D01*
X01354435Y00593806D01*
X01369554Y00578687D01*
X01389309Y00570504D01*
X01410691Y00570504D01*
X01430446Y00578687D01*
X01445565Y00593806D01*
X01450000Y00604512D01*
X01454435Y00593806D01*
X01469554Y00578687D01*
X01486045Y00571856D01*
X01332189Y00418000D01*
X01266447Y00418000D01*
X01250642Y00411453D01*
X01191189Y00352000D01*
X01187071Y00352000D01*
X01163180Y00342104D01*
X01150000Y00328924D01*
X01136820Y00342104D01*
X01112929Y00352000D01*
X01087071Y00352000D01*
X01063180Y00342104D01*
X01050000Y00328924D01*
X01043000Y00335924D01*
X01043000Y00335969D02*
X01057045Y00335969D01*
X01043000Y00351968D02*
X01086993Y00351968D01*
X01113007Y00351968D02*
X01186993Y00351968D01*
X01207155Y00367966D02*
X01043000Y00367966D01*
X01043000Y00383965D02*
X01223154Y00383965D01*
X01239152Y00399963D02*
X01043000Y00399963D01*
X01043000Y00415962D02*
X01261526Y00415962D01*
X01256823Y00463957D02*
X01043000Y00463957D01*
X01043000Y00447959D02*
X01362148Y00447959D01*
X01378146Y00463957D02*
X01343177Y00463957D01*
X01347811Y00479956D02*
X01394145Y00479956D01*
X01410143Y00495954D02*
X01347811Y00495954D01*
X01347811Y00511953D02*
X01426142Y00511953D01*
X01442140Y00527951D02*
X01346746Y00527951D01*
X01343000Y00543950D02*
X01458139Y00543950D01*
X01474137Y00559948D02*
X01343000Y00559948D01*
X01343000Y00575947D02*
X01376168Y00575947D01*
X01356295Y00591945D02*
X01343704Y00591945D01*
X01256295Y00591945D02*
X01243705Y00591945D01*
X01257000Y00575947D02*
X01223831Y00575947D01*
X01176168Y00575947D02*
X01043000Y00575947D01*
X01043000Y00559948D02*
X01257000Y00559948D01*
X01257000Y00543950D02*
X01043000Y00543950D01*
X01043000Y00527951D02*
X01253254Y00527951D01*
X01252189Y00511953D02*
X01043000Y00511953D01*
X01043000Y00495954D02*
X01252189Y00495954D01*
X01252189Y00479956D02*
X01043000Y00479956D01*
X01043000Y00431960D02*
X01346149Y00431960D01*
X01423831Y00575947D02*
X01476168Y00575947D01*
X01456295Y00591945D02*
X01443705Y00591945D01*
X01662779Y00351968D02*
X02339008Y00351968D01*
X02339008Y00367966D02*
X01678777Y00367966D01*
X01694776Y00383965D02*
X02339008Y00383965D01*
X02339008Y00399963D02*
X01710774Y00399963D01*
X01726773Y00415962D02*
X02339008Y00415962D01*
X02339008Y00431960D02*
X01742771Y00431960D01*
X01758770Y00447959D02*
X02339008Y00447959D01*
X02339008Y00463957D02*
X01774768Y00463957D01*
X01790767Y00479956D02*
X02339008Y00479956D01*
X02339008Y00495954D02*
X01806765Y00495954D01*
X01822764Y00511953D02*
X02339008Y00511953D01*
X02339008Y00527951D02*
X01838762Y00527951D01*
X01854761Y00543950D02*
X02115464Y00543950D01*
X02098128Y00559948D02*
X01865308Y00559948D01*
X01868000Y00575947D02*
X02089608Y00575947D01*
X02085000Y00591945D02*
X01868000Y00591945D01*
X01868000Y00607944D02*
X02085000Y00607944D01*
X02089562Y00623942D02*
X01868000Y00623942D01*
X01868000Y00639941D02*
X02098017Y00639941D01*
X02102137Y00655939D02*
X01868000Y00655939D01*
X01868000Y00671938D02*
X02091268Y00671938D01*
X02085000Y00687937D02*
X01868000Y00687937D01*
X01868000Y00703935D02*
X02085000Y00703935D01*
X02087901Y00719934D02*
X01868000Y00719934D01*
X01868000Y00735932D02*
X02094528Y00735932D01*
X02106145Y00751931D02*
X01868000Y00751931D01*
X01868000Y00767929D02*
X02092929Y00767929D01*
X02086302Y00783928D02*
X01868000Y00783928D01*
X01868000Y00799926D02*
X02085000Y00799926D01*
X02086241Y00815925D02*
X01868000Y00815925D01*
X01868000Y00831923D02*
X02092868Y00831923D01*
X02105998Y00847922D02*
X01868000Y00847922D01*
X01868000Y00863920D02*
X02094589Y00863920D01*
X02087962Y00879919D02*
X01868000Y00879919D01*
X01868000Y00895917D02*
X02085000Y00895917D01*
X02194002Y00847922D02*
X02339008Y00847922D01*
X02339008Y00863920D02*
X02205411Y00863920D01*
X02215730Y00879919D02*
X02339008Y00879919D01*
X02339008Y00895917D02*
X02231728Y00895917D01*
X02247727Y00911916D02*
X02339008Y00911916D01*
X02339008Y00927914D02*
X02262395Y00927914D01*
X02268000Y00943913D02*
X02339008Y00943913D01*
X02339008Y00959911D02*
X02268000Y00959911D01*
X02268000Y00975910D02*
X02339008Y00975910D01*
X02339008Y00991908D02*
X02268000Y00991908D01*
X02268000Y01007907D02*
X02339008Y01007907D01*
X02339008Y01023906D02*
X02268000Y01023906D01*
X02268000Y01039904D02*
X02339008Y01039904D01*
X02339008Y01055903D02*
X02268000Y01055903D01*
X02268000Y01071901D02*
X02339008Y01071901D01*
X02339008Y01087900D02*
X02268000Y01087900D01*
X02268000Y01103898D02*
X02339008Y01103898D01*
X02339008Y01119897D02*
X02268000Y01119897D01*
X02268000Y01135895D02*
X02339008Y01135895D01*
X02339008Y01151894D02*
X02268000Y01151894D01*
X02268000Y01167892D02*
X02339008Y01167892D01*
X02339008Y01183891D02*
X02268000Y01183891D01*
X02268000Y01199889D02*
X02339008Y01199889D01*
X02339008Y01215888D02*
X02268000Y01215888D01*
X02268000Y01231886D02*
X02339008Y01231886D01*
X02339008Y01247885D02*
X02268000Y01247885D01*
X02268000Y01263883D02*
X02339008Y01263883D01*
X02339008Y01279882D02*
X02268000Y01279882D01*
X02268000Y01295880D02*
X02339008Y01295880D01*
X02339008Y01311879D02*
X02268000Y01311879D01*
X02268000Y01327877D02*
X02339008Y01327877D01*
X02339008Y01343876D02*
X02268000Y01343876D01*
X02268000Y01359875D02*
X02339008Y01359875D01*
X02339008Y01375873D02*
X02268000Y01375873D01*
X02268000Y01391872D02*
X02339008Y01391872D01*
X02339008Y01407870D02*
X02268000Y01407870D01*
X02268000Y01423869D02*
X02339008Y01423869D01*
X02339008Y01439867D02*
X02268000Y01439867D01*
X02268000Y01455866D02*
X02339008Y01455866D01*
X02339008Y01471864D02*
X02268000Y01471864D01*
X02268000Y01487863D02*
X02339008Y01487863D01*
X02339008Y01503861D02*
X02268000Y01503861D01*
X02268000Y01519860D02*
X02339008Y01519860D01*
X02339008Y01535858D02*
X02268000Y01535858D01*
X02268000Y01551857D02*
X02339008Y01551857D01*
X02339008Y01567855D02*
X02268000Y01567855D01*
X02268000Y01583854D02*
X02339008Y01583854D01*
X02339008Y01599852D02*
X02268000Y01599852D01*
X02268000Y01615851D02*
X02339008Y01615851D01*
X02339008Y01631849D02*
X02268000Y01631849D01*
X02268000Y01647848D02*
X02339008Y01647848D01*
X02339008Y01663846D02*
X02268000Y01663846D01*
X02268000Y01679845D02*
X02339008Y01679845D01*
X02339008Y01695844D02*
X02268000Y01695844D01*
X02268000Y01711842D02*
X02339008Y01711842D01*
X02339008Y01727841D02*
X02268000Y01727841D01*
X02268000Y01743839D02*
X02339008Y01743839D01*
X02339008Y01759838D02*
X02268000Y01759838D01*
X02268000Y01775836D02*
X02339008Y01775836D01*
X02339008Y01791835D02*
X02268000Y01791835D01*
X02268000Y01807833D02*
X02339008Y01807833D01*
X02339008Y01823832D02*
X02268000Y01823832D01*
X02268000Y01839830D02*
X02339008Y01839830D01*
X02339008Y01855829D02*
X02268000Y01855829D01*
X02268000Y01871827D02*
X02339008Y01871827D01*
X02339008Y01887826D02*
X02268000Y01887826D01*
X02268000Y01903824D02*
X02339008Y01903824D01*
X02339008Y01919823D02*
X02268000Y01919823D01*
X02268000Y01935821D02*
X02339008Y01935821D01*
X02339008Y01951820D02*
X02268000Y01951820D01*
X02268000Y01967818D02*
X02339008Y01967818D01*
X02339008Y01983817D02*
X02268000Y01983817D01*
X02268000Y01999815D02*
X02339008Y01999815D01*
X02339008Y02015814D02*
X02268000Y02015814D01*
X02268000Y02031813D02*
X02339008Y02031813D01*
X02339008Y02047811D02*
X02268000Y02047811D01*
X02268000Y02063810D02*
X02339008Y02063810D01*
X02339008Y02079808D02*
X02268000Y02079808D01*
X02262924Y02095807D02*
X02339008Y02095807D01*
X02339008Y02111805D02*
X02249006Y02111805D01*
X02233007Y02127804D02*
X02339008Y02127804D01*
X02339008Y02143802D02*
X02217009Y02143802D01*
X02201010Y02159801D02*
X02339008Y02159801D01*
X02339008Y02175799D02*
X02185012Y02175799D01*
X02169013Y02191798D02*
X02339008Y02191798D01*
X02339008Y02207796D02*
X02153015Y02207796D01*
X02137016Y02223795D02*
X02339008Y02223795D01*
X02339008Y02239793D02*
X02121018Y02239793D01*
X02105019Y02255792D02*
X02339008Y02255792D01*
X02339008Y02271790D02*
X02089021Y02271790D01*
X02073022Y02287789D02*
X02339008Y02287789D01*
X02339008Y02303787D02*
X02057024Y02303787D01*
X02041025Y02319786D02*
X02339008Y02319786D01*
X02339008Y02335784D02*
X02025027Y02335784D01*
X02009028Y02351783D02*
X02339008Y02351783D01*
X02339008Y02367781D02*
X01993030Y02367781D01*
X01977031Y02383780D02*
X02339008Y02383780D01*
X02339008Y02399779D02*
X01961032Y02399779D01*
X01945034Y02415777D02*
X02339008Y02415777D01*
X02339008Y02431776D02*
X01929035Y02431776D01*
X01913037Y02447774D02*
X02339008Y02447774D01*
X02339008Y02463773D02*
X01893759Y02463773D01*
X01817400Y02306589D02*
X01819554Y02304435D01*
X01830260Y02300000D01*
X01819554Y02295565D01*
X01804435Y02280446D01*
X01796252Y02260691D01*
X01796252Y02257063D01*
X01738546Y02199358D01*
X01732000Y02183553D01*
X01732000Y01546924D01*
X01723820Y01555104D01*
X01699929Y01565000D01*
X01693000Y01565000D01*
X01693000Y01613780D01*
X01693548Y01614328D01*
X01697811Y01624619D01*
X01697811Y01675381D01*
X01693548Y01685672D01*
X01685672Y01693548D01*
X01675381Y01697811D01*
X01624619Y01697811D01*
X01614328Y01693548D01*
X01606452Y01685672D01*
X01602189Y01675381D01*
X01602189Y01624619D01*
X01606452Y01614328D01*
X01607000Y01613780D01*
X01607000Y01565000D01*
X01600071Y01565000D01*
X01576180Y01555104D01*
X01557896Y01536820D01*
X01548000Y01512929D01*
X01548000Y01487071D01*
X01557896Y01463180D01*
X01571076Y01450000D01*
X01557896Y01436820D01*
X01548000Y01412929D01*
X01548000Y01387071D01*
X01557896Y01363180D01*
X01571076Y01350000D01*
X01557896Y01336820D01*
X01548000Y01312929D01*
X01548000Y01287071D01*
X01557896Y01263180D01*
X01571076Y01250000D01*
X01564076Y01243000D01*
X01366447Y01243000D01*
X01350642Y01236453D01*
X01338546Y01224358D01*
X01282189Y01168000D01*
X01181734Y01168000D01*
X01184040Y01171174D01*
X01187970Y01178887D01*
X01190646Y01187121D01*
X01192000Y01195671D01*
X01192000Y01197000D01*
X01103001Y01197000D01*
X01103001Y01203000D01*
X01192000Y01203000D01*
X01192000Y01204329D01*
X01190646Y01212879D01*
X01187970Y01221113D01*
X01184040Y01228826D01*
X01178952Y01235830D01*
X01172830Y01241952D01*
X01170608Y01243566D01*
X01173820Y01244896D01*
X01192104Y01263180D01*
X01202000Y01287071D01*
X01202000Y01291189D01*
X01311453Y01400642D01*
X01318000Y01416447D01*
X01318000Y01921189D01*
X01396252Y01842937D01*
X01396252Y01839309D01*
X01404435Y01819554D01*
X01419554Y01804435D01*
X01439309Y01796252D01*
X01460691Y01796252D01*
X01480446Y01804435D01*
X01495565Y01819554D01*
X01503748Y01839309D01*
X01503748Y01860691D01*
X01495565Y01880446D01*
X01480446Y01895565D01*
X01469739Y01900000D01*
X01480446Y01904435D01*
X01495565Y01919554D01*
X01503748Y01939309D01*
X01503748Y01960691D01*
X01495565Y01980446D01*
X01480446Y01995565D01*
X01460691Y02003748D01*
X01457063Y02003748D01*
X01454406Y02006405D01*
X01460244Y02007329D01*
X01466793Y02009457D01*
X01472929Y02012583D01*
X01478500Y02016631D01*
X01483369Y02021500D01*
X01487417Y02027071D01*
X01490543Y02033207D01*
X01492671Y02039756D01*
X01493748Y02046557D01*
X01493748Y02049999D01*
X01450001Y02049999D01*
X01450001Y02050000D01*
X01493748Y02050000D01*
X01493748Y02053443D01*
X01492671Y02060244D01*
X01490543Y02066793D01*
X01487417Y02072929D01*
X01483369Y02078500D01*
X01478500Y02083369D01*
X01472929Y02087417D01*
X01466793Y02090543D01*
X01460244Y02092671D01*
X01453443Y02093748D01*
X01450000Y02093748D01*
X01450000Y02050001D01*
X01449999Y02050001D01*
X01449999Y02093748D01*
X01446557Y02093748D01*
X01439756Y02092671D01*
X01433207Y02090543D01*
X01427071Y02087417D01*
X01421500Y02083369D01*
X01416631Y02078500D01*
X01412583Y02072929D01*
X01409457Y02066793D01*
X01407329Y02060244D01*
X01406405Y02054406D01*
X01318000Y02142811D01*
X01318000Y02158553D01*
X01311453Y02174358D01*
X01053811Y02432000D01*
X01107189Y02432000D01*
X01396252Y02142937D01*
X01396252Y02139309D01*
X01404435Y02119554D01*
X01419554Y02104435D01*
X01439309Y02096252D01*
X01460691Y02096252D01*
X01480446Y02104435D01*
X01495565Y02119554D01*
X01503748Y02139309D01*
X01503748Y02142937D01*
X01742811Y02382000D01*
X01771189Y02382000D01*
X01737000Y02347811D01*
X01724619Y02347811D01*
X01714328Y02343548D01*
X01706452Y02335672D01*
X01702189Y02325381D01*
X01702189Y02274619D01*
X01706452Y02264328D01*
X01714328Y02256452D01*
X01724619Y02252189D01*
X01775381Y02252189D01*
X01785672Y02256452D01*
X01793548Y02264328D01*
X01797811Y02274619D01*
X01797811Y02287000D01*
X01817400Y02306589D01*
X01814598Y02303787D02*
X01821116Y02303787D01*
X01811778Y02287789D02*
X01798600Y02287789D01*
X01796639Y02271790D02*
X01800849Y02271790D01*
X01794981Y02255792D02*
X01784079Y02255792D01*
X01778982Y02239793D02*
X01600604Y02239793D01*
X01584606Y02223795D02*
X01762984Y02223795D01*
X01746985Y02207796D02*
X01568607Y02207796D01*
X01552609Y02191798D02*
X01735415Y02191798D01*
X01732000Y02175799D02*
X01536610Y02175799D01*
X01520612Y02159801D02*
X01732000Y02159801D01*
X01732000Y02143802D02*
X01504613Y02143802D01*
X01498982Y02127804D02*
X01732000Y02127804D01*
X01732000Y02111805D02*
X01487816Y02111805D01*
X01482061Y02079808D02*
X01732000Y02079808D01*
X01732000Y02063810D02*
X01491512Y02063810D01*
X01493748Y02047811D02*
X01732000Y02047811D01*
X01732000Y02031813D02*
X01489832Y02031813D01*
X01477376Y02015814D02*
X01732000Y02015814D01*
X01732000Y01999815D02*
X01470185Y01999815D01*
X01492194Y01983817D02*
X01732000Y01983817D01*
X01732000Y01967818D02*
X01500796Y01967818D01*
X01503748Y01951820D02*
X01732000Y01951820D01*
X01732000Y01935821D02*
X01502303Y01935821D01*
X01495677Y01919823D02*
X01732000Y01919823D01*
X01732000Y01903824D02*
X01478972Y01903824D01*
X01488185Y01887826D02*
X01732000Y01887826D01*
X01732000Y01871827D02*
X01499135Y01871827D01*
X01503748Y01855829D02*
X01732000Y01855829D01*
X01732000Y01839830D02*
X01503748Y01839830D01*
X01497337Y01823832D02*
X01732000Y01823832D01*
X01732000Y01807833D02*
X01483844Y01807833D01*
X01416156Y01807833D02*
X01318000Y01807833D01*
X01318000Y01791835D02*
X01732000Y01791835D01*
X01732000Y01775836D02*
X01318000Y01775836D01*
X01318000Y01759838D02*
X01732000Y01759838D01*
X01732000Y01743839D02*
X01318000Y01743839D01*
X01318000Y01727841D02*
X01732000Y01727841D01*
X01732000Y01711842D02*
X01318000Y01711842D01*
X01318000Y01695844D02*
X01619870Y01695844D01*
X01604038Y01679845D02*
X01318000Y01679845D01*
X01318000Y01663846D02*
X01602189Y01663846D01*
X01602189Y01647848D02*
X01318000Y01647848D01*
X01318000Y01631849D02*
X01602189Y01631849D01*
X01605821Y01615851D02*
X01318000Y01615851D01*
X01318000Y01599852D02*
X01607000Y01599852D01*
X01607000Y01583854D02*
X01318000Y01583854D01*
X01318000Y01567855D02*
X01607000Y01567855D01*
X01572933Y01551857D02*
X01318000Y01551857D01*
X01318000Y01535858D02*
X01557498Y01535858D01*
X01550871Y01519860D02*
X01318000Y01519860D01*
X01318000Y01503861D02*
X01548000Y01503861D01*
X01548000Y01487863D02*
X01318000Y01487863D01*
X01318000Y01471864D02*
X01554299Y01471864D01*
X01565210Y01455866D02*
X01318000Y01455866D01*
X01318000Y01439867D02*
X01560943Y01439867D01*
X01552531Y01423869D02*
X01318000Y01423869D01*
X01314447Y01407870D02*
X01548000Y01407870D01*
X01548000Y01391872D02*
X01302683Y01391872D01*
X01286684Y01375873D02*
X01552638Y01375873D01*
X01561202Y01359875D02*
X01270686Y01359875D01*
X01254687Y01343876D02*
X01564952Y01343876D01*
X01554192Y01327877D02*
X01238689Y01327877D01*
X01222690Y01311879D02*
X01548000Y01311879D01*
X01548000Y01295880D02*
X01206692Y01295880D01*
X01199022Y01279882D02*
X01550978Y01279882D01*
X01557604Y01263883D02*
X01192395Y01263883D01*
X01176809Y01247885D02*
X01568961Y01247885D01*
X01727067Y01551857D02*
X01732000Y01551857D01*
X01732000Y01567855D02*
X01693000Y01567855D01*
X01693000Y01583854D02*
X01732000Y01583854D01*
X01732000Y01599852D02*
X01693000Y01599852D01*
X01694179Y01615851D02*
X01732000Y01615851D01*
X01732000Y01631849D02*
X01697811Y01631849D01*
X01697811Y01647848D02*
X01732000Y01647848D01*
X01732000Y01663846D02*
X01697811Y01663846D01*
X01695962Y01679845D02*
X01732000Y01679845D01*
X01732000Y01695844D02*
X01680130Y01695844D01*
X01402663Y01823832D02*
X01318000Y01823832D01*
X01318000Y01839830D02*
X01396252Y01839830D01*
X01383360Y01855829D02*
X01318000Y01855829D01*
X01318000Y01871827D02*
X01367362Y01871827D01*
X01351363Y01887826D02*
X01318000Y01887826D01*
X01318000Y01903824D02*
X01335365Y01903824D01*
X01319366Y01919823D02*
X01318000Y01919823D01*
X01397001Y02063810D02*
X01408488Y02063810D01*
X01417939Y02079808D02*
X01381003Y02079808D01*
X01365004Y02095807D02*
X01732000Y02095807D01*
X01715921Y02255792D02*
X01616603Y02255792D01*
X01632602Y02271790D02*
X01703361Y02271790D01*
X01702189Y02287789D02*
X01648600Y02287789D01*
X01664599Y02303787D02*
X01702189Y02303787D01*
X01702189Y02319786D02*
X01680597Y02319786D01*
X01696596Y02335784D02*
X01706564Y02335784D01*
X01712594Y02351783D02*
X01740972Y02351783D01*
X01728593Y02367781D02*
X01756970Y02367781D01*
X01686963Y02447774D02*
X01513037Y02447774D01*
X01529035Y02431776D02*
X01670965Y02431776D01*
X01654966Y02415777D02*
X01545034Y02415777D01*
X01561032Y02399779D02*
X01638968Y02399779D01*
X01622969Y02383780D02*
X01567906Y02383780D01*
X01568000Y02367781D02*
X01606970Y02367781D01*
X01590972Y02351783D02*
X01568000Y02351783D01*
X01568000Y02335784D02*
X01574973Y02335784D01*
X01497038Y02463773D02*
X01706241Y02463773D01*
X01481040Y02479771D02*
X02339008Y02479771D01*
X02339008Y02495770D02*
X01465041Y02495770D01*
X01449043Y02511768D02*
X02339008Y02511768D01*
X02339008Y02527767D02*
X01433044Y02527767D01*
X01417046Y02543765D02*
X02339008Y02543765D01*
X02339008Y02559764D02*
X01401047Y02559764D01*
X01385049Y02575762D02*
X02339008Y02575762D01*
X02339008Y02591761D02*
X01369050Y02591761D01*
X01353052Y02607759D02*
X02339008Y02607759D01*
X01450000Y02079808D02*
X01449999Y02079808D01*
X01449999Y02063810D02*
X01450000Y02063810D01*
X01412184Y02111805D02*
X01349006Y02111805D01*
X01333007Y02127804D02*
X01401017Y02127804D01*
X01395387Y02143802D02*
X01318000Y02143802D01*
X01317483Y02159801D02*
X01379388Y02159801D01*
X01363390Y02175799D02*
X01310012Y02175799D01*
X01294013Y02191798D02*
X01347391Y02191798D01*
X01331392Y02207796D02*
X01278015Y02207796D01*
X01262016Y02223795D02*
X01315394Y02223795D01*
X01299395Y02239793D02*
X01246018Y02239793D01*
X01230019Y02255792D02*
X01283397Y02255792D01*
X01267398Y02271790D02*
X01214021Y02271790D01*
X01198022Y02287789D02*
X01251400Y02287789D01*
X01235401Y02303787D02*
X01182024Y02303787D01*
X01166025Y02319786D02*
X01219403Y02319786D01*
X01203404Y02335784D02*
X01150027Y02335784D01*
X01134028Y02351783D02*
X01187406Y02351783D01*
X01171407Y02367781D02*
X01118030Y02367781D01*
X01102031Y02383780D02*
X01155409Y02383780D01*
X01139410Y02399779D02*
X01086032Y02399779D01*
X01070034Y02415777D02*
X01123412Y02415777D01*
X01107413Y02431776D02*
X01054035Y02431776D01*
X01002615Y02086574D02*
X01182000Y01907189D01*
X01182000Y01546924D01*
X01173820Y01555104D01*
X01149929Y01565000D01*
X01143000Y01565000D01*
X01143000Y01758553D01*
X01136453Y01774358D01*
X01124358Y01786453D01*
X01003748Y01907063D01*
X01003748Y01910691D01*
X00995565Y01930446D01*
X00980446Y01945565D01*
X00960691Y01953748D01*
X00939309Y01953748D01*
X00919554Y01945565D01*
X00904435Y01930446D01*
X00896252Y01910691D01*
X00896252Y01889309D01*
X00904435Y01869554D01*
X00919554Y01854435D01*
X00930260Y01850000D01*
X00919554Y01845565D01*
X00904435Y01830446D01*
X00896252Y01810691D01*
X00896252Y01789309D01*
X00904435Y01769554D01*
X00907000Y01766989D01*
X00907000Y01191447D01*
X00913546Y01175642D01*
X00977122Y01112066D01*
X00975642Y01111453D01*
X00963546Y01099358D01*
X00893685Y01029496D01*
X00893000Y01029496D01*
X00893000Y01982189D01*
X00906405Y01995594D01*
X00907329Y01989756D01*
X00909457Y01983207D01*
X00912583Y01977071D01*
X00916631Y01971500D01*
X00921500Y01966631D01*
X00927071Y01962583D01*
X00933207Y01959457D01*
X00939756Y01957329D01*
X00946557Y01956252D01*
X00949999Y01956252D01*
X00949999Y01999999D01*
X00950000Y01999999D01*
X00950000Y01956252D01*
X00953443Y01956252D01*
X00960244Y01957329D01*
X00966793Y01959457D01*
X00972929Y01962583D01*
X00978500Y01966631D01*
X00983369Y01971500D01*
X00987417Y01977071D01*
X00990543Y01983207D01*
X00992671Y01989756D01*
X00993748Y01996557D01*
X00993748Y01999999D01*
X00950001Y01999999D01*
X00950001Y02000000D01*
X00993748Y02000000D01*
X00993748Y02003443D01*
X00992671Y02010244D01*
X00990543Y02016793D01*
X00987417Y02022929D01*
X00983369Y02028500D01*
X00978500Y02033369D01*
X00972929Y02037417D01*
X00966793Y02040543D01*
X00960244Y02042671D01*
X00954406Y02043595D01*
X00957063Y02046252D01*
X00960691Y02046252D01*
X00980446Y02054435D01*
X00995565Y02069554D01*
X01002615Y02086574D01*
X00999813Y02079808D02*
X01009381Y02079808D01*
X01025379Y02063810D02*
X00989821Y02063810D01*
X00964455Y02047811D02*
X01041378Y02047811D01*
X01057376Y02031813D02*
X00980056Y02031813D01*
X00990861Y02015814D02*
X01073375Y02015814D01*
X01089373Y01999815D02*
X00993748Y01999815D01*
X00990741Y01983817D02*
X01105372Y01983817D01*
X01121370Y01967818D02*
X00979688Y01967818D01*
X00965346Y01951820D02*
X01137369Y01951820D01*
X01153367Y01935821D02*
X00990190Y01935821D01*
X00999966Y01919823D02*
X01169366Y01919823D01*
X01182000Y01903824D02*
X01006987Y01903824D01*
X01022985Y01887826D02*
X01182000Y01887826D01*
X01182000Y01871827D02*
X01038984Y01871827D01*
X01054982Y01855829D02*
X01182000Y01855829D01*
X01182000Y01839830D02*
X01070981Y01839830D01*
X01086979Y01823832D02*
X01182000Y01823832D01*
X01182000Y01807833D02*
X01102978Y01807833D01*
X01118976Y01791835D02*
X01182000Y01791835D01*
X01182000Y01775836D02*
X01134975Y01775836D01*
X01142468Y01759838D02*
X01182000Y01759838D01*
X01182000Y01743839D02*
X01143000Y01743839D01*
X01143000Y01727841D02*
X01182000Y01727841D01*
X01182000Y01711842D02*
X01143000Y01711842D01*
X01143000Y01695844D02*
X01182000Y01695844D01*
X01182000Y01679845D02*
X01143000Y01679845D01*
X01143000Y01663846D02*
X01182000Y01663846D01*
X01182000Y01647848D02*
X01143000Y01647848D01*
X01143000Y01631849D02*
X01182000Y01631849D01*
X01182000Y01615851D02*
X01143000Y01615851D01*
X01143000Y01599852D02*
X01182000Y01599852D01*
X01182000Y01583854D02*
X01143000Y01583854D01*
X01143000Y01567855D02*
X01182000Y01567855D01*
X01182000Y01551857D02*
X01177067Y01551857D01*
X01057000Y01565000D02*
X01057000Y01732189D01*
X01002615Y01786574D01*
X00995565Y01769554D01*
X00993000Y01766989D01*
X00993000Y01217811D01*
X01013811Y01197000D01*
X01096999Y01197000D01*
X01096999Y01203000D01*
X01008000Y01203000D01*
X01008000Y01204329D01*
X01009354Y01212879D01*
X01012030Y01221113D01*
X01015960Y01228826D01*
X01021048Y01235830D01*
X01027170Y01241952D01*
X01029392Y01243566D01*
X01026180Y01244896D01*
X01007896Y01263180D01*
X00998000Y01287071D01*
X00998000Y01312929D01*
X01007896Y01336820D01*
X01021076Y01350000D01*
X01007896Y01363180D01*
X00998000Y01387071D01*
X00998000Y01412929D01*
X01007896Y01436820D01*
X01021076Y01450000D01*
X01007896Y01463180D01*
X00998000Y01487071D01*
X00998000Y01512929D01*
X01007896Y01536820D01*
X01026180Y01555104D01*
X01050071Y01565000D01*
X01057000Y01565000D01*
X01057000Y01567855D02*
X00993000Y01567855D01*
X00993000Y01551857D02*
X01022933Y01551857D01*
X01007498Y01535858D02*
X00993000Y01535858D01*
X00993000Y01519860D02*
X01000871Y01519860D01*
X00998000Y01503861D02*
X00993000Y01503861D01*
X00993000Y01487863D02*
X00998000Y01487863D01*
X00993000Y01471864D02*
X01004299Y01471864D01*
X01015210Y01455866D02*
X00993000Y01455866D01*
X00993000Y01439867D02*
X01010943Y01439867D01*
X01002531Y01423869D02*
X00993000Y01423869D01*
X00993000Y01407870D02*
X00998000Y01407870D01*
X00998000Y01391872D02*
X00993000Y01391872D01*
X00993000Y01375873D02*
X01002638Y01375873D01*
X01011202Y01359875D02*
X00993000Y01359875D01*
X00993000Y01343876D02*
X01014952Y01343876D01*
X01004192Y01327877D02*
X00993000Y01327877D01*
X00993000Y01311879D02*
X00998000Y01311879D01*
X00998000Y01295880D02*
X00993000Y01295880D01*
X00993000Y01279882D02*
X01000978Y01279882D01*
X01007604Y01263883D02*
X00993000Y01263883D01*
X00993000Y01247885D02*
X01023191Y01247885D01*
X01018183Y01231886D02*
X00993000Y01231886D01*
X00994923Y01215888D02*
X01010332Y01215888D01*
X01010922Y01199889D02*
X01096999Y01199889D01*
X01103001Y01199889D02*
X01314078Y01199889D01*
X01298080Y01183891D02*
X01189596Y01183891D01*
X01189668Y01215888D02*
X01330077Y01215888D01*
X01346075Y01231886D02*
X01181817Y01231886D01*
X00969292Y01119897D02*
X00893000Y01119897D01*
X00893000Y01135895D02*
X00953294Y01135895D01*
X00937295Y01151894D02*
X00893000Y01151894D01*
X00893000Y01167892D02*
X00921297Y01167892D01*
X00910130Y01183891D02*
X00893000Y01183891D01*
X00893000Y01199889D02*
X00907000Y01199889D01*
X00907000Y01215888D02*
X00893000Y01215888D01*
X00893000Y01231886D02*
X00907000Y01231886D01*
X00907000Y01247885D02*
X00893000Y01247885D01*
X00893000Y01263883D02*
X00907000Y01263883D01*
X00907000Y01279882D02*
X00893000Y01279882D01*
X00893000Y01295880D02*
X00907000Y01295880D01*
X00907000Y01311879D02*
X00893000Y01311879D01*
X00893000Y01327877D02*
X00907000Y01327877D01*
X00907000Y01343876D02*
X00893000Y01343876D01*
X00893000Y01359875D02*
X00907000Y01359875D01*
X00907000Y01375873D02*
X00893000Y01375873D01*
X00893000Y01391872D02*
X00907000Y01391872D01*
X00907000Y01407870D02*
X00893000Y01407870D01*
X00893000Y01423869D02*
X00907000Y01423869D01*
X00907000Y01439867D02*
X00893000Y01439867D01*
X00893000Y01455866D02*
X00907000Y01455866D01*
X00907000Y01471864D02*
X00893000Y01471864D01*
X00893000Y01487863D02*
X00907000Y01487863D01*
X00907000Y01503861D02*
X00893000Y01503861D01*
X00893000Y01519860D02*
X00907000Y01519860D01*
X00907000Y01535858D02*
X00893000Y01535858D01*
X00893000Y01551857D02*
X00907000Y01551857D01*
X00907000Y01567855D02*
X00893000Y01567855D01*
X00893000Y01583854D02*
X00907000Y01583854D01*
X00907000Y01599852D02*
X00893000Y01599852D01*
X00893000Y01615851D02*
X00907000Y01615851D01*
X00907000Y01631849D02*
X00893000Y01631849D01*
X00893000Y01647848D02*
X00907000Y01647848D01*
X00907000Y01663846D02*
X00893000Y01663846D01*
X00893000Y01679845D02*
X00907000Y01679845D01*
X00907000Y01695844D02*
X00893000Y01695844D01*
X00893000Y01711842D02*
X00907000Y01711842D01*
X00907000Y01727841D02*
X00893000Y01727841D01*
X00893000Y01743839D02*
X00907000Y01743839D01*
X00907000Y01759838D02*
X00893000Y01759838D01*
X00893000Y01775836D02*
X00901832Y01775836D01*
X00896252Y01791835D02*
X00893000Y01791835D01*
X00893000Y01807833D02*
X00896252Y01807833D01*
X00893000Y01823832D02*
X00901695Y01823832D01*
X00893000Y01839830D02*
X00913819Y01839830D01*
X00918160Y01855829D02*
X00893000Y01855829D01*
X00893000Y01871827D02*
X00903493Y01871827D01*
X00896866Y01887826D02*
X00893000Y01887826D01*
X00893000Y01903824D02*
X00896252Y01903824D01*
X00893000Y01919823D02*
X00900034Y01919823D01*
X00893000Y01935821D02*
X00909810Y01935821D01*
X00893000Y01951820D02*
X00934654Y01951820D01*
X00920312Y01967818D02*
X00893000Y01967818D01*
X00894628Y01983817D02*
X00909259Y01983817D01*
X00949999Y01983817D02*
X00950000Y01983817D01*
X00949999Y01999815D02*
X00950000Y01999815D01*
X00949999Y01967818D02*
X00950000Y01967818D01*
X00998167Y01775836D02*
X01013353Y01775836D01*
X01029351Y01759838D02*
X00993000Y01759838D01*
X00993000Y01743839D02*
X01045350Y01743839D01*
X01057000Y01727841D02*
X00993000Y01727841D01*
X00993000Y01711842D02*
X01057000Y01711842D01*
X01057000Y01695844D02*
X00993000Y01695844D01*
X00993000Y01679845D02*
X01057000Y01679845D01*
X01057000Y01663846D02*
X00993000Y01663846D01*
X00993000Y01647848D02*
X01057000Y01647848D01*
X01057000Y01631849D02*
X00993000Y01631849D01*
X00993000Y01615851D02*
X01057000Y01615851D01*
X01057000Y01599852D02*
X00993000Y01599852D01*
X00993000Y01583854D02*
X01057000Y01583854D01*
X00968087Y01103898D02*
X00893000Y01103898D01*
X00893000Y01087900D02*
X00952088Y01087900D01*
X00936090Y01071901D02*
X00893000Y01071901D01*
X00893000Y01055903D02*
X00920091Y01055903D01*
X00904093Y01039904D02*
X00893000Y01039904D01*
X01046501Y00703935D02*
X01066404Y00703935D01*
X01057961Y00687937D02*
X01053128Y00687937D01*
X01053748Y00671938D02*
X01056252Y00671938D01*
X01056252Y00655939D02*
X01053748Y00655939D01*
X01056252Y00649999D02*
X01056252Y00620809D01*
X01057329Y00614008D01*
X01059457Y00607459D01*
X01062583Y00601323D01*
X01066631Y00595752D01*
X01071500Y00590883D01*
X01077071Y00586835D01*
X01083207Y00583709D01*
X01089756Y00581581D01*
X01096557Y00580504D01*
X01099999Y00580504D01*
X01099999Y00649999D01*
X01056252Y00649999D01*
X01056252Y00639941D02*
X01053748Y00639941D01*
X01053748Y00623942D02*
X01056252Y00623942D01*
X01059299Y00607944D02*
X01051421Y00607944D01*
X01043704Y00591945D02*
X01070437Y00591945D01*
X01099999Y00591945D02*
X01100000Y00591945D01*
X01099999Y00607944D02*
X01100000Y00607944D01*
X01099999Y00623942D02*
X01100000Y00623942D01*
X01099999Y00639941D02*
X01100000Y00639941D01*
X01143748Y00639941D02*
X01146252Y00639941D01*
X01146252Y00655939D02*
X01143748Y00655939D01*
X01143748Y00671938D02*
X01146252Y00671938D01*
X01146872Y00687937D02*
X01142039Y00687937D01*
X01133596Y00703935D02*
X01153499Y00703935D01*
X01146252Y00623942D02*
X01143748Y00623942D01*
X01140700Y00607944D02*
X01148578Y00607944D01*
X01156295Y00591945D02*
X01129563Y00591945D01*
X01142955Y00335969D02*
X01157045Y00335969D01*
X01390804Y00079993D02*
X02339008Y00079993D01*
X02339008Y00095991D02*
X01406802Y00095991D01*
X01422801Y00111990D02*
X02339008Y00111990D01*
X02339008Y00127988D02*
X01438799Y00127988D01*
X01454798Y00143987D02*
X02339008Y00143987D01*
X02339008Y00159985D02*
X01470796Y00159985D01*
X01486795Y00175984D02*
X02339008Y00175984D01*
X02339008Y00191982D02*
X01502793Y00191982D01*
X01518792Y00207981D02*
X02339008Y00207981D01*
X02339008Y00223979D02*
X01534790Y00223979D01*
X01550789Y00239978D02*
X02339008Y00239978D01*
X02339008Y00255976D02*
X01566787Y00255976D01*
X01582786Y00271975D02*
X02339008Y00271975D01*
X02339008Y00287973D02*
X01598784Y00287973D01*
X01614783Y00303972D02*
X02339008Y00303972D01*
X02339008Y00319970D02*
X01630781Y00319970D01*
X01646780Y00335969D02*
X02339008Y00335969D01*
X02339008Y00543950D02*
X02184536Y00543950D01*
X02201872Y00559948D02*
X02339008Y00559948D01*
X02339008Y00575947D02*
X02210392Y00575947D01*
X02215000Y00591945D02*
X02339008Y00591945D01*
X02339008Y00607944D02*
X02215000Y00607944D01*
X02210438Y00623942D02*
X02339008Y00623942D01*
X02339008Y00639941D02*
X02201983Y00639941D01*
X02197863Y00655939D02*
X02339008Y00655939D01*
X02339008Y00671938D02*
X02208732Y00671938D01*
X02215000Y00687937D02*
X02339008Y00687937D01*
X02339008Y00703935D02*
X02215000Y00703935D01*
X02212099Y00719934D02*
X02339008Y00719934D01*
X02339008Y00735932D02*
X02205472Y00735932D01*
X02193854Y00751931D02*
X02339008Y00751931D01*
X02339008Y00767929D02*
X02207071Y00767929D01*
X02213698Y00783928D02*
X02339008Y00783928D01*
X02339008Y00799926D02*
X02215000Y00799926D01*
X02213759Y00815925D02*
X02339008Y00815925D01*
X02339008Y00831923D02*
X02207132Y00831923D01*
X02339008Y00063994D02*
X01374805Y00063994D01*
X00707000Y02063810D02*
X00589821Y02063810D01*
X00599813Y02079808D02*
X00707000Y02079808D01*
X00707000Y02095807D02*
X00606618Y02095807D01*
X00622616Y02111805D02*
X00707000Y02111805D01*
X00707000Y02127804D02*
X00638615Y02127804D01*
X00654613Y02143802D02*
X00707000Y02143802D01*
X00707000Y02159801D02*
X00670612Y02159801D01*
X00686610Y02175799D02*
X00707000Y02175799D01*
X00707000Y02191798D02*
X00702609Y02191798D01*
M02*
